<?xml version="1.0" standalone="no"?>
<!DOCTYPE svg PUBLIC "-//W3C//DTD SVG 1.1//EN" "http://www.w3.org/Graphics/SVG/1.1/DTD/svg11.dtd" >
<svg xmlns="http://www.w3.org/2000/svg" xmlns:xlink="http://www.w3.org/1999/xlink" version="1.1">
<metadata>
Created by FontForge 20181014 at Sun Jan  3 20:11:38 1999
 By convertio
Copyright 1990-1999 Bitstream Inc.  All rights reserved.
</metadata>
<defs>
<font id="ErasITCbyBT-Medium" horiz-adv-x="1024" >
  <font-face 
    font-family="Eras Md BT"
    font-weight="400"
    font-style="italic"
    font-stretch="normal"
    units-per-em="2048"
    panose-1="2 11 5 2 3 5 9 3 8 4"
    ascent="1556"
    descent="-492"
    x-height="1020"
    cap-height="1356"
    bbox="-342 -483 2351 1917"
    underline-thickness="119"
    underline-position="-274"
    slope="-3"
    unicode-range="U+0020-F002"
  />
<missing-glyph horiz-adv-x="1229" 
d="M102 -362v1806h1024v-1806h-1024zM217 -248h795v1577h-795v-1577z" />
    <glyph glyph-name=".notdef" horiz-adv-x="1229" 
d="M102 -362v1806h1024v-1806h-1024zM217 -248h795v1577h-795v-1577z" />
    <glyph glyph-name=".null" horiz-adv-x="0" 
 />
    <glyph glyph-name="nonmarkingreturn" horiz-adv-x="563" 
 />
    <glyph glyph-name="space" unicode=" " horiz-adv-x="563" 
 />
    <glyph glyph-name="exclam" unicode="!" horiz-adv-x="563" 
d="M197 281l34 843v15q0 7 1.5 79.5t3.5 137.5h196q-1 -10 -8 -103t-14 -175l-68 -797h-145zM154 0l12 193h182l-4 -193h-190z" />
    <glyph glyph-name="quotedbl" unicode="&#x22;" horiz-adv-x="590" 
d="M496 1434v-553h-119v553h119zM211 1434v-553h-117v553h117z" />
    <glyph glyph-name="numbersign" unicode="#" horiz-adv-x="1575" 
d="M973 862h-264l-95 -272h263zM922 1456l-166 -471h260l168 471h143l-164 -471h307l-43 -123h-311l-94 -272h330l-43 -123h-332l-166 -469h-145l168 469h-265l-168 -469h-143l166 469h-320l43 123h320l96 272h-342l43 123h344l168 471h146z" />
    <glyph glyph-name="dollar" unicode="$" horiz-adv-x="1128" 
d="M207 162l-8 178q94 -50 170 -73t143 -23q99 0 154 40t55 111q0 37 -17.5 68t-78.5 86l-215 190q-87 78 -120.5 139t-33.5 134q0 99 65.5 165.5t182.5 84.5l-2 104h160l-5 -106q43 -5 83.5 -13t80.5 -20l10 -162q-69 29 -135.5 44t-117.5 15q-69 0 -109.5 -32.5
t-40.5 -85.5q0 -41 21.5 -76t74.5 -80l193 -166q100 -86 130 -142t30 -132q0 -130 -76.5 -210t-212.5 -94l-2 -110h-156l4 110q-48 5 -103.5 18.5t-123.5 37.5z" />
    <glyph glyph-name="percent" unicode="%" horiz-adv-x="1659" 
d="M1206 1356l-678 -1356h-125l678 1356h125zM1260 657q-101 0 -150 -87t-49 -267q0 -95 45.5 -148t128.5 -53q98 0 145 76t47 234q0 134 -38.5 189.5t-128.5 55.5zM911 336q0 208 92 324t254 116q154 0 236 -92.5t82 -265.5q0 -215 -88.5 -323.5t-261.5 -108.5
q-151 0 -232.5 90.5t-81.5 259.5zM393 1268q-101 0 -149.5 -87t-48.5 -266q0 -95 45.5 -148.5t128.5 -53.5q97 0 144.5 76t47.5 235q0 134 -38.5 189t-129.5 55zM47 946q0 210 90.5 325t253.5 115q154 0 237 -92.5t83 -265.5q0 -214 -89 -323t-264 -109q-150 0 -230.5 90.5
t-80.5 259.5z" />
    <glyph glyph-name="ampersand" unicode="&#x26;" horiz-adv-x="1296" 
d="M852 164l-397 526q-100 -36 -155.5 -107t-55.5 -161q0 -145 98 -231.5t262 -86.5q72 0 133 15t115 45zM1008 0l-52 63q-84 -45 -176.5 -67.5t-199.5 -22.5q-238 0 -377.5 120t-139.5 321q0 142 75.5 239.5t234.5 161.5q-52 84 -70 136.5t-18 107.5q0 156 105.5 240.5
t301.5 84.5q69 0 141.5 -11.5t147.5 -35.5l10 -168q-95 41 -165 58.5t-136 17.5q-105 0 -169 -52.5t-64 -137.5q0 -43 19.5 -88.5t68.5 -112.5l444 -594q50 43 73 102t23 146v12h166q-1 -125 -39.5 -212.5t-121.5 -157.5l114 -150h-196z" />
    <glyph glyph-name="quotesingle" unicode="'" horiz-adv-x="305" 
d="M211 1434v-553h-117v553h117z" />
    <glyph glyph-name="parenleft" unicode="(" horiz-adv-x="541" 
d="M250 -385q-53 233 -78 423t-25 357q0 241 49 500.5t146 538.5h139q-87 -290 -125.5 -527t-38.5 -475q0 -196 19.5 -399.5t58.5 -417.5h-145z" />
    <glyph glyph-name="parenright" unicode=")" horiz-adv-x="541" 
d="M279 1434q52 -233 77 -423t25 -358q0 -241 -48.5 -500.5t-146.5 -537.5h-139q89 295 127.5 531t38.5 470q0 197 -19.5 400.5t-58.5 417.5h144z" />
    <glyph glyph-name="asterisk" unicode="*" 
d="M543 887l-185 -297l-120 88l231 266l-340 86l45 137l322 -133l-27 352h141l-20 -352l321 135l45 -139l-335 -86l227 -266l-121 -88z" />
    <glyph glyph-name="plus" unicode="+" horiz-adv-x="1706" 
d="M913 1221v-551h539v-117h-539v-553h-118v553h-541v117h541v551h118z" />
    <glyph glyph-name="comma" unicode="," horiz-adv-x="563" 
d="M209 199h229l-231 -406h-148z" />
    <glyph glyph-name="hyphen" unicode="-" horiz-adv-x="674" 
d="M88 438v166h498v-166h-498z" />
    <glyph glyph-name="period" unicode="." horiz-adv-x="563" 
d="M180 199h191l-13 -199h-188z" />
    <glyph glyph-name="slash" unicode="/" horiz-adv-x="565" 
d="M33 -190h-131l585 1546h131z" />
    <glyph glyph-name="zero" unicode="0" horiz-adv-x="1128" 
d="M1034 768q0 -375 -138 -587t-380 -212q-225 0 -340 158t-115 469q0 369 140 578.5t385 209.5q218 0 333 -157.5t115 -458.5zM518 113q169 0 258.5 180.5t89.5 523.5q0 198 -76.5 311t-211.5 113q-167 0 -258 -179.5t-91 -510.5q0 -210 75.5 -324t213.5 -114z" />
    <glyph glyph-name="one" unicode="1" horiz-adv-x="1128" 
d="M643 0h-192q7 59 12.5 120t9.5 132l37 680q2 70 3 106t1 68v68q-45 -23 -81.5 -43.5t-72.5 -43.5v164q52 25 100 51t93 54h162q-14 -95 -24 -278q-2 -37 -3 -54l-33 -601q-4 -72 -7 -178t-5 -245z" />
    <glyph glyph-name="two" unicode="2" horiz-adv-x="1128" 
d="M57 0l9 139l325 295q227 205 340 360.5t113 262.5q0 94 -74 143t-215 49q-98 0 -203 -17t-221 -52l25 161q118 22 217 32.5t188 10.5q230 0 341.5 -76t111.5 -233q0 -136 -107.5 -305.5t-308.5 -349.5l-309 -277h383q70 0 152 5t171 14l-14 -162h-924z" />
    <glyph glyph-name="three" unicode="3" horiz-adv-x="1128" 
d="M70 27l-17 166q133 -45 220 -61.5t169 -16.5q188 0 286.5 71t98.5 207q0 121 -85.5 182.5t-254.5 61.5q-26 0 -66 -2.5t-107 -7.5l-1 151q8 0 24 -1q64 -3 89 -3q178 0 274.5 68.5t96.5 193.5q0 111 -71 161t-228 50q-86 0 -175 -15.5t-176 -45.5l35 162q98 18 183 27
t159 9q226 0 340.5 -82t114.5 -245q0 -132 -71.5 -219t-213.5 -125q154 -25 230.5 -106.5t76.5 -221.5q0 -194 -148.5 -304t-412.5 -110q-94 0 -185.5 14t-184.5 42z" />
    <glyph glyph-name="four" unicode="4" horiz-adv-x="1128" 
d="M229 625h437l22 614zM618 0q11 89 17.5 152t7.5 101l10 222h-592l15 178l416 561q12 17 30.5 44t65.5 98h256q-14 -133 -20.5 -228.5t-8.5 -165.5l-10 -337h78q37 0 76.5 3t80.5 9v-168q-30 3 -59 4.5t-61 1.5h-123l-13 -232q-1 -24 -1.5 -51t-0.5 -77q0 -35 0.5 -61
t1.5 -54h-166z" />
    <glyph glyph-name="five" unicode="5" horiz-adv-x="1128" 
d="M119 6l-10 164q83 -29 162 -43t155 -14q198 0 306 81.5t108 231.5q0 128 -90.5 196t-262.5 68q-71 0 -151.5 -12t-177.5 -37l69 715h783l-1 -150q-70 5 -135 8t-114 3h-385l-45 -410q58 8 108 12t94 4q230 0 355 -101.5t125 -287.5q0 -226 -149 -344.5t-433 -118.5
q-95 0 -169 8.5t-142 26.5z" />
    <glyph glyph-name="six" unicode="6" horiz-adv-x="1128" 
d="M717 1356q-264 -342 -378 -563t-114 -385q0 -145 84 -221t242 -76q146 0 229.5 76.5t83.5 209.5q0 142 -69.5 218.5t-198.5 76.5q-46 0 -96.5 -10.5t-106.5 -32.5l86 152q41 13 77.5 19.5t72.5 6.5q190 0 298.5 -112.5t108.5 -311.5q0 -201 -129 -316.5t-356 -115.5
q-241 0 -366.5 111t-125.5 324q0 185 112.5 419.5t342.5 530.5h203z" />
    <glyph glyph-name="seven" unicode="7" horiz-adv-x="1128" 
d="M250 0l442 889q53 108 90.5 180t75.5 139h-536q-62 0 -101.5 -2t-77.5 -6l21 164q38 -4 75.5 -6t94.5 -2h43h645v-148l-346 -735l-7 -14q-116 -249 -200 -459h-219z" />
    <glyph glyph-name="eight" unicode="8" horiz-adv-x="1128" 
d="M346 698q-128 46 -182.5 118.5t-54.5 197.5q0 180 116.5 275t337.5 95q232 0 341.5 -83.5t109.5 -260.5q0 -134 -65.5 -221.5t-190.5 -120.5q130 -20 195 -101t65 -224q0 -192 -129.5 -297t-366.5 -105q-236 0 -356.5 91.5t-120.5 269.5q0 159 75 249.5t226 116.5z
M201 358q0 -128 77 -191t234 -63q177 0 261.5 64.5t84.5 200.5q0 129 -77 190.5t-238 61.5q-164 0 -253 -68.5t-89 -194.5zM266 1001q0 -116 74 -178.5t211 -62.5q144 0 223.5 66t79.5 186q0 123 -71 181t-220 58q-147 0 -222 -62.5t-75 -187.5z" />
    <glyph glyph-name="nine" unicode="9" horiz-adv-x="1128" 
d="M393 0q253 320 368.5 548t115.5 406q0 150 -77.5 220.5t-242.5 70.5q-146 0 -226.5 -71.5t-80.5 -200.5q0 -116 75.5 -179t215.5 -63q50 0 103.5 7t113.5 22l-56 -154q-43 -10 -86.5 -15t-91.5 -5q-216 0 -330 96t-114 281q0 193 128.5 306t350.5 113q236 0 360.5 -105.5
t124.5 -305.5q0 -195 -106 -427t-340 -544h-205z" />
    <glyph glyph-name="colon" unicode=":" horiz-adv-x="612" 
d="M242 1020h188l-10 -201h-191zM215 199h188l-10 -199h-188z" />
    <glyph glyph-name="semicolon" unicode=";" horiz-adv-x="612" 
d="M233 199h230l-232 -406h-147zM233 1020h189l-10 -201h-189z" />
    <glyph glyph-name="less" unicode="&#x3c;" horiz-adv-x="1706" 
d="M1442 1018l-1000 -408l1000 -405v-129l-1178 483v103l1178 483v-127z" />
    <glyph glyph-name="equal" unicode="=" horiz-adv-x="1706" 
d="M1452 477v-117h-1198v117h1198zM1452 860v-117h-1198v117h1198z" />
    <glyph glyph-name="greater" unicode="&#x3e;" horiz-adv-x="1706" 
d="M1442 662v-103l-1178 -483v129l1000 405l-1000 408v127z" />
    <glyph glyph-name="question" unicode="?" horiz-adv-x="1020" 
d="M414 285l6 232q2 49 13.5 76.5t39.5 55.5l197 197q57 58 89 122.5t32 125.5q0 90 -76 138t-219 48q-73 0 -150 -13t-215 -55l23 142q81 22 169 33.5t185 11.5q227 0 340 -78.5t113 -237.5q0 -92 -44.5 -180t-136.5 -180l-155 -156q-20 -19 -30 -46.5t-11 -65.5l-9 -170
h-161zM383 0l12 193h185l-7 -193h-190z" />
    <glyph glyph-name="at" unicode="@" horiz-adv-x="2048" 
d="M1292 844l58 121h110l-141 -568q-6 -24 -9 -44t-3 -36q0 -44 27.5 -67t82.5 -23q45 0 100 24t103 64q89 76 139.5 196.5t50.5 254.5q0 266 -195.5 428t-518.5 162q-168 0 -312.5 -52t-259.5 -153q-140 -122 -211 -282.5t-71 -354.5q0 -173 60.5 -304t186.5 -230
q101 -81 240 -124.5t295 -43.5q172 0 334.5 48.5t296.5 139.5l45 -66q-147 -109 -313 -165t-347 -56q-191 0 -348 46.5t-276 138.5q-153 117 -228 272t-75 352q0 163 50.5 309t149.5 269q146 176 349.5 267t453.5 91q165 0 311 -43.5t248 -124.5q129 -99 195.5 -230
t66.5 -282q0 -169 -62.5 -308.5t-182.5 -236.5q-69 -55 -148.5 -83.5t-163.5 -28.5q-99 0 -148.5 39t-49.5 116q0 3 1 11t1 12q-51 -87 -127 -132.5t-170 -45.5q-153 0 -233.5 85t-80.5 247q0 230 137 389t332 159q91 0 153.5 -39.5t96.5 -117.5zM1202 473l60 242
q-17 90 -72 140t-135 50q-146 0 -244 -131.5t-98 -327.5q0 -110 51 -169.5t145 -59.5q102 0 183.5 70.5t109.5 185.5z" />
    <glyph glyph-name="A" unicode="A" horiz-adv-x="1241" 
d="M666 1241l-232 -491h410zM1284 0h-194q-10 50 -19.5 88t-21.5 72l-154 446h-522l-187 -401q-14 -34 -34 -87.5t-41 -117.5h-193l563 1192q14 30 30.5 72t33.5 92l268 -1q5 -35 14 -69.5t25 -75.5z" />
    <glyph glyph-name="B" unicode="B" horiz-adv-x="1143" 
d="M295 137h256q172 0 260 65.5t88 192.5q0 117 -72.5 175.5t-218.5 58.5h-299l-12 -170q-2 -41 -3 -90t-1 -105q0 -30 0.5 -61.5t1.5 -65.5zM313 764h185q189 0 291 67.5t102 192.5q0 102 -60.5 146t-207.5 44h-277q-9 -96 -15 -197q-1 -11 -1 -16zM762 702
q150 -15 225.5 -95.5t75.5 -223.5q0 -195 -121.5 -289t-374.5 -94h-477q32 257 50.5 603t21.5 752l481 1q225 0 321.5 -72t96.5 -233q0 -142 -78.5 -233t-220.5 -116z" />
    <glyph glyph-name="C" unicode="C" horiz-adv-x="1251" 
d="M1192 1165q-94 37 -193.5 55.5t-203.5 18.5q-247 0 -384 -153.5t-137 -430.5q0 -266 135 -404t396 -138q82 0 168.5 14t191.5 45l-26 -172l-14 -2q-205 -29 -326 -29q-350 0 -531.5 173.5t-181.5 506.5q0 349 195 542t546 193q89 0 179 -10.5t180 -32.5z" />
    <glyph glyph-name="D" unicode="D" horiz-adv-x="1450" 
d="M299 142l260 -1q161 0 241 17t144 55q118 72 177 200.5t59 315.5q0 234 -97.5 359.5t-279.5 125.5h-109h-348l-35 -725q-3 -75 -7 -193.5t-5 -153.5zM94 0q29 251 46.5 598.5t23.5 756.5l561 1q205 0 290 -24t152 -81q100 -84 149.5 -214t49.5 -308q0 -184 -54.5 -328
t-160.5 -241q-92 -86 -214 -123t-329 -37h-514z" />
    <glyph glyph-name="E" unicode="E" horiz-adv-x="1110" 
d="M92 0q28 255 45 598t23 758h915l-12 -160q-19 1 -53 3q-161 7 -189 7h-477q-1 -8 -4.5 -26t-3.5 -23t-1.5 -32.5t-2.5 -49.5l-10 -295h426q44 0 95 2t130 6l-7 -157q-36 3 -75.5 4.5t-106.5 1.5h-104h-361l-16 -197q-4 -45 -7.5 -109.5t-6.5 -168.5q72 -7 147.5 -9.5
t169.5 -2.5q123 0 222 4t184 12l-8 -166h-912z" />
    <glyph glyph-name="F" unicode="F" horiz-adv-x="1028" 
d="M94 0q27 179 44.5 522t25.5 833l854 1l-10 -162q-79 8 -155.5 12t-154.5 4h-350q-5 -39 -8.5 -80t-5.5 -83l-10 -267h348q27 0 99.5 3t160.5 7l-9 -165q-62 3 -122.5 4.5t-120.5 1.5h-358l-11 -191q-3 -74 -4.5 -154t-1.5 -167v-119h-211z" />
    <glyph glyph-name="G" unicode="G" horiz-adv-x="1448" 
d="M1151 172q10 67 15.5 168.5t7.5 286.5h-302l9 147h477q-13 -155 -20 -301.5t-7 -275.5q0 -26 1 -57t3 -91q-142 -40 -277 -60t-261 -20q-344 0 -530.5 172.5t-186.5 489.5q0 357 200.5 557.5t559.5 200.5q106 0 216.5 -15.5t227.5 -46.5l14 -158q-188 47 -282 61.5
t-174 14.5q-272 0 -426 -161t-154 -447q0 -248 146 -387t405 -139q104 0 190 15.5t148 45.5z" />
    <glyph glyph-name="H" unicode="H" horiz-adv-x="1470" 
d="M299 0h-205q29 251 46.5 598.5t23.5 756.5l205 1q-8 -64 -13.5 -131.5t-9.5 -149.5l-18 -301q82 -1 170 -1.5t239 -0.5q118 0 215 0.5t201 2.5l14 234q4 52 5 102.5t2 127.5v117h202q-33 -349 -50 -668.5t-17 -595.5v-92h-203q8 87 14 162t8 122l17 340q-125 4 -228 5.5
t-184 1.5q-78 0 -180.5 -1.5t-230.5 -4.5l-11 -185q-4 -102 -7 -212t-5 -228z" />
    <glyph glyph-name="I" unicode="I" horiz-adv-x="485" 
d="M379 1356q-12 -109 -17 -169t-8 -112l-32 -635q-7 -115 -10.5 -223.5t-4.5 -216.5h-205q29 253 47 600.5t23 754.5z" />
    <glyph glyph-name="J" unicode="J" horiz-adv-x="848" 
d="M-18 172q93 -31 155 -44t113 -13q127 0 186 59t74 209q13 151 23 411.5t14 560.5l208 1q-7 -65 -12.5 -133t-9.5 -148l-26 -497q-3 -44 -5 -122q-8 -237 -49 -313q-44 -84 -147 -128t-256 -44q-68 0 -133 9t-129 26z" />
    <glyph glyph-name="K" unicode="K" horiz-adv-x="1067" 
d="M340 711l272 336q108 133 154 197t72 112h252l-549 -641l538 -715h-254q-33 60 -62 108.5t-52 81.5zM296 0h-204q28 251 46 598.5t24 756.5l204 1q-9 -74 -15 -144.5t-9 -136.5l-33 -635q-4 -96 -7 -206t-6 -234z" />
    <glyph glyph-name="L" unicode="L" horiz-adv-x="909" 
d="M92 0q28 255 45 598t23 758h200q-13 -112 -20.5 -195t-9.5 -155l-23 -519q-1 -34 -1.5 -93.5t-0.5 -233.5q66 -6 119.5 -8t103.5 -2q95 0 191 4t192 12l-8 -166h-811z" />
    <glyph glyph-name="M" unicode="M" horiz-adv-x="1776" 
d="M721 0q-6 40 -14 77t-19 68l-346 1057l-70 -823q-5 -62 -10.5 -161t-9.5 -218h-182q37 253 67 601t49 755h295q10 -45 19.5 -85t19.5 -75l342 -1061l426 1016q20 48 39 98.5t37 106.5h293q-6 -104 -11 -239q-1 -30 -1 -42l-27 -774q0 -9 -1 -26t-1 -25q0 -64 1.5 -126.5
t4.5 -123.5h-198q6 75 11.5 141.5t8.5 108.5l26 630q3 61 4 101.5t1 77.5q0 23 -1 72t-1 75l-433 -1042q-13 -31 -26.5 -72.5t-28.5 -91.5h-264z" />
    <glyph glyph-name="N" unicode="N" horiz-adv-x="1464" 
d="M295 440q-14 -293 -14 -440h-191q35 316 55.5 654.5t26.5 701.5h254l713 -1182l45 836q0 8 1 25q7 146 7 204v15q-2 53 -2 102h188q-11 -93 -17.5 -160t-8.5 -122l-41 -772q-1 -23 -1.5 -54t-0.5 -109q0 -35 0.5 -69t1.5 -70h-262q-33 64 -82 143l-12 20l-625 1037z" />
    <glyph glyph-name="O" unicode="O" horiz-adv-x="1640" 
d="M272 645q0 -255 142 -392.5t405 -137.5q265 0 406 152.5t141 439.5q0 259 -141 396.5t-406 137.5q-267 0 -407 -152.5t-140 -443.5zM786 -29q-329 0 -515.5 179t-186.5 495q0 350 199 544.5t559 194.5q337 0 524.5 -180t187.5 -504q0 -345 -201 -537t-567 -192z" />
    <glyph glyph-name="P" unicode="P" 
d="M92 0q28 251 46 598.5t24 756.5l469 1q108 0 158 -9.5t88 -31.5q65 -38 102 -110t37 -165q0 -191 -133 -302t-365 -111q-29 0 -58.5 1.5t-61.5 4.5l-47 131q18 -3 39.5 -4.5t62.5 -1.5q188 0 285.5 64.5t97.5 189.5q0 113 -59.5 160t-221.5 47q-48 0 -103 -3.5t-112 -9.5
q-10 -80 -13 -178q-1 -23 -1 -31l-23 -555q-5 -111 -8 -221.5t-5 -220.5h-198z" />
    <glyph glyph-name="Q" unicode="Q" horiz-adv-x="1640" 
d="M1548 195l-20 -164q-157 -30 -323.5 -46t-332.5 -16q-394 0 -591 169.5t-197 510.5q0 345 195.5 540t539.5 195q357 0 546 -175t189 -504q0 -224 -80 -369t-237 -207v-12q72 8 151 28t160 50zM272 659q0 -265 141 -406.5t404 -141.5q265 0 406 153.5t141 442.5
q0 260 -140 397t-405 137q-262 0 -404.5 -151.5t-142.5 -430.5z" />
    <glyph glyph-name="R" unicode="R" horiz-adv-x="1085" 
d="M92 0q28 247 46 594.5t24 760.5l477 1q221 0 311 -75t90 -247t-106.5 -277.5t-300.5 -123.5l373 -633h-218q-30 64 -63.5 125.5t-77.5 134.5l-295 496q24 -1 55.5 -2.5t38.5 -1.5q204 0 306 67t102 201q0 108 -57 151t-242 43h-217q-4 -40 -7 -89t-7 -128l-23 -557
q-5 -130 -8 -240.5t-5 -199.5h-196z" />
    <glyph glyph-name="S" unicode="S" horiz-adv-x="915" 
d="M53 53l-10 178q135 -71 218 -96.5t163 -25.5q112 0 177 47.5t65 130.5q0 51 -32.5 102t-103.5 113l-239 207q-125 108 -165 178t-40 155q0 157 109.5 247.5t300.5 90.5q81 0 160 -14.5t147 -42.5l16 -160q-108 39 -186 56.5t-141 17.5q-104 0 -167 -50t-63 -128
q0 -47 27.5 -91t93.5 -102l266 -231q106 -91 150.5 -166t44.5 -160q0 -157 -110.5 -248.5t-301.5 -91.5q-92 0 -188 21.5t-191 62.5z" />
    <glyph glyph-name="T" unicode="T" horiz-adv-x="1006" 
d="M371 0q23 212 43 531t32 690q-132 -2 -229 -6t-176 -11l6 152h981l-4 -151q-58 6 -137 9.5t-256 5.5l-45 -777q-4 -51 -5 -106t-1 -161q0 -57 0.5 -97t0.5 -79h-210z" />
    <glyph glyph-name="U" unicode="U" horiz-adv-x="1370" 
d="M352 1356q-7 -63 -12.5 -130.5t-9.5 -150.5l-29 -600q-1 -13 -1.5 -27.5t-0.5 -41.5q0 -82 18.5 -129.5t59.5 -79.5q51 -40 122.5 -61t157.5 -21q210 0 304.5 96t101.5 328l12 471q1 21 2 65q4 171 4 281h203q-10 -76 -16.5 -147t-10.5 -136l-22 -470q-1 -30 -3 -87
q-7 -273 -89 -375q-66 -81 -194 -125.5t-300 -44.5q-253 0 -393.5 109.5t-140.5 304.5q0 56 15 378t18 593h204z" />
    <glyph glyph-name="V" unicode="V" horiz-adv-x="1251" 
d="M707 0h-262q-8 58 -34 136l-3 9l-420 1211h198q8 -41 18 -80.5t23 -79.5l365 -1057l473 1012q14 29 34 83t42 122h188l-563 -1192q-12 -25 -27 -67t-32 -97z" />
    <glyph glyph-name="W" unicode="W" horiz-adv-x="1817" 
d="M993 788l213 -649l422 1012q15 34 33.5 85.5t40.5 119.5h176l-508 -1192q-11 -28 -24 -64.5t-33 -99.5h-248q-9 58 -33 133l-4 12l-133 443l-176 -424q-18 -44 -32.5 -84t-27.5 -80h-247q-9 45 -32 115q-7 22 -9 30l-377 1211h186q5 -32 14.5 -70t24.5 -90l328 -1057
l280 633l-186 584h182q9 -56 34 -142q3 -11 5 -18l64 -231l67 185l8 24q33 93 62 182h178z" />
    <glyph glyph-name="X" unicode="X" horiz-adv-x="1096" 
d="M528 592l-302 -413q-4 -5 -11 -15q-71 -96 -106 -164h-213l542 713l-432 643h225q19 -31 33.5 -54.5t20.5 -31.5l276 -428l258 340q24 31 49 69.5t62 104.5h215l-492 -641l475 -715h-229q-31 60 -50.5 96t-31.5 54z" />
    <glyph glyph-name="Y" unicode="Y" horiz-adv-x="975" 
d="M394 0v14q16 196 16 215l14 381l-438 746h221q24 -58 38.5 -88t28.5 -54l252 -438l234 408q17 29 38.5 72t47.5 100h198l-442 -756l-18 -426v-31q0 -45 4 -137v-6h-194z" />
    <glyph glyph-name="Z" unicode="Z" horiz-adv-x="1071" 
d="M33 0v166l815 1044h-555q-30 0 -76 -2t-100 -6l6 154h934v-164l-817 -1047h528q27 0 91 3t142 8l-6 -156h-962z" />
    <glyph glyph-name="bracketleft" unicode="[" horiz-adv-x="588" 
d="M551 -401h-410q11 92 19 230q1 23 2 34l63 1198v6q0 8 1.5 113t2.5 204h404l-4 -129h-232l-71 -1521h225v-135z" />
    <glyph glyph-name="backslash" unicode="\" horiz-adv-x="569" 
d="M190 1356l302 -1546h-121l-301 1546h120z" />
    <glyph glyph-name="bracketright" unicode="]" horiz-adv-x="588" 
d="M23 1384h407q-10 -90 -18 -225q-2 -27 -2 -39l-62 -1198v-6q0 -1 -2.5 -106t-3.5 -211h-401l2 129h233l70 1521h-223v135z" />
    <glyph glyph-name="asciicircum" unicode="^" horiz-adv-x="2048" 
d="M1104 1458l520 -557h-158l-442 438l-442 -438h-160l520 557h162z" />
    <glyph glyph-name="underscore" unicode="_" 
d="M1024 -365v-118h-1024v118h1024z" />
    <glyph glyph-name="grave" unicode="`" 
d="M682 1159h-107l-280 348h178z" />
    <glyph glyph-name="a" unicode="a" horiz-adv-x="1010" 
d="M604 0q-96 -16 -142.5 -21.5t-84.5 -5.5q-153 0 -243.5 72t-90.5 193q0 105 55 171t183 113l233 84q129 47 174 85.5t45 96.5q0 69 -52 101.5t-163 32.5q-79 0 -166.5 -21t-181.5 -61l23 153q85 27 174 40.5t182 13.5q189 0 269.5 -61.5t80.5 -209.5q0 -34 -0.5 -51
t-1.5 -31l-20 -522v-172h-187q12 74 19 215q1 25 2 37l18 326q-22 -21 -49.5 -37t-71.5 -33l-223 -84q-91 -34 -127.5 -75.5t-36.5 -104.5q0 -69 48 -105.5t139 -36.5q39 0 95.5 9t121.5 26z" />
    <glyph glyph-name="b" unicode="b" horiz-adv-x="1157" 
d="M86 0q34 413 52.5 752.5t21.5 603.5h172q-7 -73 -11 -168q-1 -19 -2 -27l-6 -176q65 31 138.5 47.5t148.5 16.5q223 0 349 -132t126 -368q0 -265 -131 -421.5t-350 -156.5q-109 0 -189 42t-139 130l-8 -143h-172zM303 840q-10 -67 -15 -157.5t-5 -190.5q0 -187 74.5 -284
t217.5 -97q157 0 244.5 114t87.5 320q0 181 -82.5 274.5t-242.5 93.5q-64 0 -132.5 -18t-146.5 -55z" />
    <glyph glyph-name="c" unicode="c" horiz-adv-x="901" 
d="M831 16q-77 -22 -144.5 -33.5t-125.5 -11.5q-231 0 -359 135t-128 379q0 263 141 413.5t385 150.5q55 0 119.5 -10t150.5 -31v-154l-3 1q-184 56 -273 56q-173 0 -263.5 -110t-90.5 -320q0 -185 81.5 -278.5t243.5 -93.5q54 0 123 14.5t178 50.5z" />
    <glyph glyph-name="d" unicode="d" horiz-adv-x="1157" 
d="M885 883q-47 16 -102.5 24t-116.5 8q-205 0 -315.5 -121t-110.5 -345q0 -164 75.5 -256.5t208.5 -92.5q165 0 253 106t95 312zM846 0l6 147q-73 -87 -157 -129.5t-183 -42.5q-213 0 -327.5 120t-114.5 341q0 283 161 447t441 164q54 0 110 -8.5t113 -24.5l2 91
q2 59 4 115v13v123h168q-25 -282 -40.5 -626.5t-21.5 -729.5h-161z" />
    <glyph glyph-name="e" unicode="e" horiz-adv-x="1010" 
d="M262 680h537q0 111 -62.5 170t-179.5 59q-116 0 -194.5 -61t-100.5 -168zM244 547q-1 -9 -2 -24q-2 -46 -2 -64q0 -178 80 -267.5t239 -89.5q64 0 126.5 14t172.5 60l-18 -160q-99 -24 -166 -34.5t-121 -10.5q-226 0 -352.5 134.5t-126.5 373.5q0 260 137 415t364 155
q193 0 295.5 -107t102.5 -309q0 -10 -2 -40.5t-2 -45.5h-725z" />
    <glyph glyph-name="f" unicode="f" horiz-adv-x="555" 
d="M584 1020l-6 -129h-232q-10 -193 -18 -412t-15 -479h-174q20 219 29.5 441t9.5 450h-139l6 129h139v72q0 150 69.5 220t215.5 70q42 0 81.5 -4.5t76.5 -14.5l6 -128q-41 8 -70 11t-55 3q-87 0 -121.5 -40.5t-34.5 -151.5v-37h232z" />
    <glyph glyph-name="g" unicode="g" horiz-adv-x="1157" 
d="M877 879q-43 15 -97 22.5t-116 7.5q-203 0 -312.5 -126.5t-109.5 -360.5q0 -145 78 -231.5t208 -86.5q158 0 244 106.5t92 307.5zM143 -231q120 -48 225 -72.5t193 -24.5q142 0 209.5 69.5t69.5 218.5l4 151q-57 -61 -146 -96t-182 -35q-213 0 -327.5 117.5t-114.5 336.5
q0 292 162.5 451t461.5 159q96 0 190.5 -13t176.5 -38q-37 -317 -45 -670.5t-8 -359.5q-18 -228 -130 -327t-352 -99q-93 0 -187.5 17t-184.5 51z" />
    <glyph glyph-name="h" unicode="h" horiz-adv-x="1161" 
d="M299 874q66 88 164 132.5t227 44.5q183 0 275 -81.5t92 -242.5q0 -3 -9.5 -212.5t-9.5 -416.5v-98h-186q18 156 27.5 313t9.5 314q0 177 -53 234t-185 57q-135 0 -223.5 -73.5t-122.5 -211.5q-13 -53 -22.5 -218.5t-14.5 -414.5h-178q26 315 40 653.5t18 702.5h177
q-5 -53 -8.5 -105.5t-5.5 -108.5z" />
    <glyph glyph-name="i" unicode="i" horiz-adv-x="451" 
d="M170 1184l4 172h178l-4 -172h-178zM102 0q23 251 34 490.5t11 472.5v57h195q-23 -251 -34 -490.5t-11 -472.5v-57h-195z" />
    <glyph glyph-name="j" unicode="j" horiz-adv-x="451" 
d="M176 1182l6 174h176l-6 -174h-176zM168 1019l190 1q-39 -500 -58 -1037q-5 -129 -7 -155q-14 -159 -99 -224t-274 -65q-60 0 -121 7.5t-125 23.5l-2 156q62 -23 120 -34t108 -11q221 0 238 451q2 49 3 76l17 380q2 45 4.5 162t5.5 269z" />
    <glyph glyph-name="k" unicode="k" horiz-adv-x="958" 
d="M307 559q113 111 222.5 225.5t218.5 235.5h239l-473 -459l455 -561h-230q-97 140 -204 279t-228 280zM80 0q28 194 46 546.5t24 809.5h188q-10 -87 -17.5 -186t-13.5 -232l-41 -938h-186z" />
    <glyph glyph-name="l" unicode="l" horiz-adv-x="440" 
d="M98 0q28 193 46 545.5t24 809.5l186 1q-27 -193 -45.5 -546t-24.5 -810h-186z" />
    <glyph glyph-name="m" unicode="m" horiz-adv-x="1704" 
d="M1399 0q15 174 23 341t8 318q0 141 -45 198.5t-150 57.5q-170 0 -237.5 -149.5t-67.5 -601.5q0 -17 -1 -52.5t-1 -54.5q0 -23 0.5 -35.5t0.5 -21.5h-184q16 165 23.5 325.5t7.5 311.5q0 168 -43 223t-151 55q-176 0 -243 -154t-69 -761h-180q21 250 31 489t10 467v64h152
l-4 -131q66 85 146.5 123.5t190.5 38.5q128 0 205 -48t101 -141q61 96 148.5 142.5t205.5 46.5q163 0 243 -86t80 -260q0 -38 -9 -244t-9 -377v-84h-182z" />
    <glyph glyph-name="n" unicode="n" horiz-adv-x="1161" 
d="M852 0q18 185 27.5 352.5t9.5 290.5q0 157 -52.5 216t-181.5 59q-218 0 -303.5 -166t-85.5 -672v-80h-178q23 237 34 492t11 528h160v-160q71 97 167.5 143t229.5 46q186 0 274.5 -78.5t88.5 -245.5q0 -30 -7.5 -235.5t-7.5 -383.5v-106h-186z" />
    <glyph glyph-name="o" unicode="o" horiz-adv-x="1165" 
d="M594 909q-173 0 -262.5 -110t-89.5 -322q0 -183 82.5 -275.5t244.5 -92.5q173 0 263 109t90 319q0 187 -82 279.5t-246 92.5zM76 485q0 263 140.5 413.5t385.5 150.5q235 0 361.5 -134.5t126.5 -384.5q0 -258 -137.5 -408.5t-370.5 -150.5q-245 0 -375.5 133t-130.5 381z
" />
    <glyph glyph-name="p" unicode="p" horiz-adv-x="1157" 
d="M57 -432q31 201 51 545t31 868q111 34 216 51t204 17q259 0 389.5 -128.5t130.5 -381.5q0 -257 -132 -413.5t-347 -156.5q-108 0 -187.5 44.5t-146.5 142.5l-10 -299q0 -7 -2 -43q-7 -130 -9 -246h-188zM309 874q-11 -67 -17.5 -163t-6.5 -205q0 -203 74 -300t227 -97
q157 0 241 112t84 322q0 188 -88.5 282.5t-265.5 94.5q-65 0 -127.5 -11.5t-120.5 -34.5z" />
    <glyph glyph-name="q" unicode="q" horiz-adv-x="1157" 
d="M823 -432q11 115 17 193t8 123l8 241q-62 -70 -150.5 -107.5t-189.5 -37.5q-213 0 -328.5 118.5t-115.5 337.5q0 290 163 449t461 159q107 0 201 -13.5t154 -37.5q-22 -428 -34 -784t-16 -641h-178zM866 883q-41 13 -92 19.5t-121 6.5q-193 0 -306.5 -123.5
t-113.5 -336.5q0 -161 78.5 -255t212.5 -94q161 0 248 108.5t90 313.5z" />
    <glyph glyph-name="r" unicode="r" horiz-adv-x="659" 
d="M96 0q20 235 29.5 472t9.5 476v72h174l-6 -141q46 88 107.5 126.5t154.5 38.5q35 0 52.5 -2.5t31.5 -7.5l10 -145q-33 4 -58 6t-34 2q-288 0 -296 -867q-1 -20 -1 -30h-174z" />
    <glyph glyph-name="s" unicode="s" horiz-adv-x="809" 
d="M37 193q100 -47 180 -69t150 -22q102 0 159.5 36.5t57.5 101.5t-98 143h-1l-223 176q-84 67 -120 125t-36 123q0 107 88 174.5t230 67.5q56 0 121.5 -10t144.5 -29l10 -150q-79 28 -148.5 43t-119.5 15q-72 0 -116 -32.5t-44 -84.5q0 -31 22.5 -61.5t80.5 -73.5l207 -156
q109 -85 138.5 -137t29.5 -123q0 -133 -100.5 -206t-284.5 -73q-76 0 -155.5 14t-164.5 42z" />
    <glyph glyph-name="t" unicode="t" horiz-adv-x="662" 
d="M176 891h-143l6 129h145l4 170l170 33l-8 -203h301l-4 -129h-303l-27 -598q0 -13 -1 -27t-1 -16q0 -75 34.5 -104t123.5 -29q54 0 153 22q13 3 19 4l-24 -151q-63 -11 -119 -17t-105 -6q-129 0 -191.5 56t-62.5 174q0 16 3 58.5t4 66.5z" />
    <glyph glyph-name="u" unicode="u" horiz-adv-x="1161" 
d="M311 1020q-18 -193 -28.5 -362.5t-10.5 -280.5q0 -156 53.5 -215.5t182.5 -59.5q218 0 302.5 164t84.5 672v82h180q-23 -248 -35 -503.5t-12 -516.5h-160v158q-70 -96 -165.5 -141.5t-229.5 -45.5q-187 0 -275.5 78t-88.5 244q0 31 7 239t7 383v105h188z" />
    <glyph glyph-name="v" unicode="v" horiz-adv-x="981" 
d="M588 0h-242q-25 105 -99 321.5t-251 698.5h197q23 -92 42 -158t31 -102l215 -623l238 565q34 81 63.5 160.5t55.5 157.5h182q-166 -366 -280 -635.5t-152 -384.5z" />
    <glyph glyph-name="w" unicode="w" horiz-adv-x="1655" 
d="M1260 0h-222l-198 862l-303 -862h-211l-213 702q-18 58 -39.5 123.5t-67.5 194.5h184q15 -65 27.5 -114t22.5 -81l206 -684l297 879h205l211 -879l273 664q18 44 36 92.5t43 122.5h181q-89 -208 -128 -299.5t-48 -113.5z" />
    <glyph glyph-name="x" unicode="x" horiz-adv-x="799" 
d="M647 0q-46 97 -128 222l-1 1l-125 199l-176 -258q-34 -49 -56.5 -86.5t-41.5 -77.5h-193q82 111 145.5 199.5t88.5 124.5l153 223l-159 254q-22 34 -63 91.5t-93 127.5h201q15 -34 36 -71t56 -91l117 -176l131 186q30 44 53.5 80.5t44.5 71.5h192q-54 -76 -111.5 -155
t-62.5 -85l-163 -225l155 -248q39 -61 88 -131.5t125 -175.5h-213z" />
    <glyph glyph-name="y" unicode="y" horiz-adv-x="952" 
d="M438 -203q-68 -146 -147.5 -203t-210.5 -57q-43 0 -88.5 5t-95.5 16l-11 143q45 -15 86.5 -23t79.5 -8q80 0 138.5 41t95.5 123l80 180l-269 709q-12 35 -43.5 116.5t-70.5 180.5h202l234 -682q13 -39 23.5 -78t17.5 -77q14 38 30.5 79.5t36.5 85.5l189 426
q19 44 43.5 107t52.5 139h190z" />
    <glyph glyph-name="z" unicode="z" horiz-adv-x="874" 
d="M831 0h-815l7 160l653 731h-424q-44 0 -87 -1.5t-83 -4.5l6 135h778v-146l-661 -735h389q31 0 90.5 3t149.5 10z" />
    <glyph glyph-name="braceleft" unicode="{" 
d="M858 1350q-8 0 -23 1t-22 1q-121 0 -164 -47t-43 -197v-242q0 -166 -43.5 -235.5t-154.5 -100.5q111 -30 154.5 -99.5t43.5 -235.5v-242q0 -149 43.5 -195.5t169.5 -46.5h39v-125h-35q-99 0 -159.5 12t-102.5 40q-55 36 -77.5 100t-22.5 213v244q0 152 -55 213t-189 61
q-7 0 -22 -1t-23 -1v127q8 0 23 -1t22 -1q134 0 189 61.5t55 214.5v244q0 153 22.5 215.5t77.5 97.5q42 28 102 40t160 12h35v-127z" />
    <glyph glyph-name="bar" unicode="|" 
d="M575 1565v-2048h-126v2048h126z" />
    <glyph glyph-name="braceright" unicode="}" 
d="M563 1112v-244q0 -152 55.5 -214t190.5 -62q7 0 22 1t23 1v-127q-8 0 -23 1t-22 1q-135 0 -190.5 -62t-55.5 -214v-242q0 -153 -22 -216.5t-76 -99.5q-39 -26 -97.5 -37.5t-160.5 -11.5h-41v125q8 0 23 -1t22 -1q120 0 163.5 47.5t43.5 198.5v240q0 166 43.5 235.5
t154.5 99.5q-111 31 -154.5 100.5t-43.5 235.5v242q0 149 -44 196.5t-169 47.5h-39v125h35q100 0 161 -12.5t103 -39.5q54 -35 76 -98t22 -215z" />
    <glyph glyph-name="asciitilde" unicode="~" horiz-adv-x="1706" 
d="M1530 627q-101 -72 -197.5 -108t-189.5 -36q-43 0 -90.5 9t-100.5 26q-30 10 -87 31q-202 72 -302 72q-83 0 -173.5 -37.5t-211.5 -122.5v133q105 73 202 109t185 36q56 0 116.5 -12.5t174.5 -52.5q14 -5 44 -16q158 -58 245 -58q84 0 174.5 37t210.5 121v-131z" />
    <glyph glyph-name="Adieresis" unicode="&#xc4;" horiz-adv-x="1241" 
d="M666 1241l-232 -491h410zM1284 0h-194q-10 50 -19.5 88t-21.5 72l-154 446h-522l-187 -401q-14 -34 -34 -87.5t-41 -117.5h-193l563 1192q14 30 30.5 72t33.5 92l268 -1q5 -35 14 -69.5t25 -75.5zM420 1530v188h159v-188h-159zM776 1530v188h160v-188h-160z" />
    <glyph glyph-name="Aring" unicode="&#xc5;" horiz-adv-x="1241" 
d="M524 1669q0 -60 42 -101.5t102 -41.5q59 0 100 41.5t41 101.5t-41 101.5t-100 41.5q-60 0 -102 -41.5t-42 -101.5zM420 1671q0 103 71.5 174.5t176.5 71.5q104 0 175.5 -71.5t71.5 -174.5q0 -105 -71.5 -177.5t-175.5 -72.5t-176 72.5t-72 177.5zM655 1241l-231 -491h410
zM1278 0h-198q-10 50 -20 88t-22 72l-153 446h-523l-186 -401q-15 -34 -34.5 -87.5t-41.5 -117.5h-186l561 1192q14 30 30.5 72t33.5 92l268 -1q5 -35 14 -69.5t25 -75.5z" />
    <glyph glyph-name="Ccedilla" unicode="&#xc7;" horiz-adv-x="1251" 
d="M1192 1165q-94 37 -193.5 55.5t-203.5 18.5q-247 0 -384 -153.5t-137 -430.5q0 -266 135 -404t396 -138q82 0 168.5 14t191.5 45l-26 -172l-14 -2q-205 -29 -326 -29q-350 0 -531.5 173.5t-181.5 506.5q0 349 195 542t546 193q89 0 179 -10.5t180 -32.5zM495 -424v88
q82 -18 143.5 -27.5t102.5 -9.5q60 0 90.5 21.5t30.5 62.5q0 52 -31.5 75.5t-101.5 23.5q-17 0 -31 -1t-27 -1v192h72v-106h23q111 0 169 -45t58 -132q0 -89 -63 -135.5t-185 -46.5q-47 0 -108 10t-142 31z" />
    <glyph glyph-name="Eacute" unicode="&#xc9;" horiz-adv-x="1110" 
d="M92 0q28 255 45 598t23 758h915l-12 -160q-19 1 -53 3q-161 7 -189 7h-477q-1 -8 -4.5 -26t-3.5 -23t-1.5 -32.5t-2.5 -49.5l-10 -295h426q44 0 95 2t130 6l-7 -157q-36 3 -75.5 4.5t-106.5 1.5h-104h-361l-16 -197q-4 -45 -7.5 -109.5t-6.5 -168.5q72 -7 147.5 -9.5
t169.5 -2.5q123 0 222 4t184 12l-8 -166h-912zM467 1466l208 348h181l-283 -348h-106z" />
    <glyph glyph-name="Ntilde" unicode="&#xd1;" horiz-adv-x="1464" 
d="M295 440q-14 -293 -14 -440h-191q35 316 55.5 654.5t26.5 701.5h254l713 -1182l45 836q0 8 1 25q7 146 7 204v15q-2 53 -2 102h188q-11 -93 -17.5 -160t-8.5 -122l-41 -772q-1 -23 -1.5 -54t-0.5 -109q0 -35 0.5 -69t1.5 -70h-262q-33 64 -82 143l-12 20l-625 1037z
M1074 1732q-25 -92 -75.5 -141t-121.5 -49q-17 0 -33.5 2.5t-33.5 7.5l-80 27q-12 4 -26 6t-28 2q-36 0 -58.5 -16t-37.5 -52h-88q21 93 72 142t127 49q17 0 32 -2t27 -6l78 -29q13 -4 29 -6t32 -2q36 0 60 17t37 50h88z" />
    <glyph glyph-name="Odieresis" unicode="&#xd6;" horiz-adv-x="1640" 
d="M272 645q0 -255 142 -392.5t405 -137.5q265 0 406 152.5t141 439.5q0 259 -141 396.5t-406 137.5q-267 0 -407 -152.5t-140 -443.5zM786 -29q-329 0 -515.5 179t-186.5 495q0 350 199 544.5t559 194.5q337 0 524.5 -180t187.5 -504q0 -345 -201 -537t-567 -192zM613 1530
v188h159v-188h-159zM969 1530v188h160v-188h-160z" />
    <glyph glyph-name="Udieresis" unicode="&#xdc;" horiz-adv-x="1370" 
d="M352 1356q-7 -63 -12.5 -130.5t-9.5 -150.5l-29 -600q-1 -13 -1.5 -27.5t-0.5 -41.5q0 -82 18.5 -129.5t59.5 -79.5q51 -40 122.5 -61t157.5 -21q210 0 304.5 96t101.5 328l12 471q1 21 2 65q4 171 4 281h203q-10 -76 -16.5 -147t-10.5 -136l-22 -470q-1 -30 -3 -87
q-7 -273 -89 -375q-66 -81 -194 -125.5t-300 -44.5q-253 0 -393.5 109.5t-140.5 304.5q0 56 15 378t18 593h204zM477 1530v188h159v-188h-159zM833 1530v188h160v-188h-160z" />
    <glyph glyph-name="aacute" unicode="&#xe1;" horiz-adv-x="1010" 
d="M604 0q-96 -16 -142.5 -21.5t-84.5 -5.5q-153 0 -243.5 72t-90.5 193q0 105 55 171t183 113l233 84q129 47 174 85.5t45 96.5q0 69 -52 101.5t-163 32.5q-79 0 -166.5 -21t-181.5 -61l23 153q85 27 174 40.5t182 13.5q189 0 269.5 -61.5t80.5 -209.5q0 -34 -0.5 -51
t-1.5 -31l-20 -522v-172h-187q12 74 19 215q1 25 2 37l18 326q-22 -21 -49.5 -37t-71.5 -33l-223 -84q-91 -34 -127.5 -75.5t-36.5 -104.5q0 -69 48 -105.5t139 -36.5q39 0 95.5 9t121.5 26zM402 1159l208 348h181l-283 -348h-106z" />
    <glyph glyph-name="agrave" unicode="&#xe0;" horiz-adv-x="1010" 
d="M604 0q-96 -16 -142.5 -21.5t-84.5 -5.5q-153 0 -243.5 72t-90.5 193q0 105 55 171t183 113l233 84q129 47 174 85.5t45 96.5q0 69 -52 101.5t-163 32.5q-79 0 -166.5 -21t-181.5 -61l23 153q85 27 174 40.5t182 13.5q189 0 269.5 -61.5t80.5 -209.5q0 -34 -0.5 -51
t-1.5 -31l-20 -522v-172h-187q12 74 19 215q1 25 2 37l18 326q-22 -21 -49.5 -37t-71.5 -33l-223 -84q-91 -34 -127.5 -75.5t-36.5 -104.5q0 -69 48 -105.5t139 -36.5q39 0 95.5 9t121.5 26zM676 1159h-107l-280 348h178z" />
    <glyph glyph-name="acircumflex" unicode="&#xe2;" horiz-adv-x="1010" 
d="M604 0q-96 -16 -142.5 -21.5t-84.5 -5.5q-153 0 -243.5 72t-90.5 193q0 105 55 171t183 113l233 84q129 47 174 85.5t45 96.5q0 69 -52 101.5t-163 32.5q-79 0 -166.5 -21t-181.5 -61l23 153q85 27 174 40.5t182 13.5q189 0 269.5 -61.5t80.5 -209.5q0 -34 -0.5 -51
t-1.5 -31l-20 -522v-172h-187q12 74 19 215q1 25 2 37l18 326q-22 -21 -49.5 -37t-71.5 -33l-223 -84q-91 -34 -127.5 -75.5t-36.5 -104.5q0 -69 48 -105.5t139 -36.5q39 0 95.5 9t121.5 26zM254 1159l197 348h176l198 -348h-106l-180 242l-180 -242h-105z" />
    <glyph glyph-name="adieresis" unicode="&#xe4;" horiz-adv-x="1010" 
d="M604 0q-96 -16 -142.5 -21.5t-84.5 -5.5q-153 0 -243.5 72t-90.5 193q0 105 55 171t183 113l233 84q129 47 174 85.5t45 96.5q0 69 -52 101.5t-163 32.5q-79 0 -166.5 -21t-181.5 -61l23 153q85 27 174 40.5t182 13.5q189 0 269.5 -61.5t80.5 -209.5q0 -34 -0.5 -51
t-1.5 -31l-20 -522v-172h-187q12 74 19 215q1 25 2 37l18 326q-22 -21 -49.5 -37t-71.5 -33l-223 -84q-91 -34 -127.5 -75.5t-36.5 -104.5q0 -69 48 -105.5t139 -36.5q39 0 95.5 9t121.5 26zM281 1223v188h159v-188h-159zM637 1223v188h160v-188h-160z" />
    <glyph glyph-name="atilde" unicode="&#xe3;" horiz-adv-x="1010" 
d="M604 0q-96 -16 -142.5 -21.5t-84.5 -5.5q-153 0 -243.5 72t-90.5 193q0 105 55 171t183 113l233 84q129 47 174 85.5t45 96.5q0 69 -52 101.5t-163 32.5q-79 0 -166.5 -21t-181.5 -61l23 153q85 27 174 40.5t182 13.5q189 0 269.5 -61.5t80.5 -209.5q0 -34 -0.5 -51
t-1.5 -31l-20 -522v-172h-187q12 74 19 215q1 25 2 37l18 326q-22 -21 -49.5 -37t-71.5 -33l-223 -84q-91 -34 -127.5 -75.5t-36.5 -104.5q0 -69 48 -105.5t139 -36.5q39 0 95.5 9t121.5 26zM830 1425q-25 -92 -75.5 -141t-121.5 -49q-17 0 -33.5 2.5t-33.5 7.5l-80 27
q-12 4 -26 6t-28 2q-36 0 -58.5 -16t-37.5 -52h-88q21 93 72 142t127 49q17 0 32 -2t27 -6l78 -29q13 -4 29 -6t32 -2q36 0 60 17t37 50h88z" />
    <glyph glyph-name="aring" unicode="&#xe5;" horiz-adv-x="1010" 
d="M436 1362q0 -60 42 -101.5t102 -41.5q59 0 101 41.5t42 101.5t-41.5 100.5t-101.5 40.5q-61 0 -102.5 -40.5t-41.5 -100.5zM332 1362q0 103 72 175.5t176 72.5q103 0 175 -72.5t72 -175.5q0 -105 -71.5 -176.5t-175.5 -71.5q-105 0 -176.5 71.5t-71.5 176.5zM604 0
q-96 -16 -142.5 -21.5t-84.5 -5.5q-153 0 -243.5 72t-90.5 193q0 105 55 171t183 113l233 84q129 47 174 85.5t45 96.5q0 69 -52 101.5t-163 32.5q-79 0 -166.5 -21t-181.5 -61l23 153q85 27 174 40.5t182 13.5q189 0 269.5 -61.5t80.5 -209.5q0 -34 -0.5 -51t-1.5 -31
l-20 -522v-172h-187q12 74 19 215q1 25 2 37l18 326q-22 -21 -49.5 -37t-71.5 -33l-223 -84q-91 -34 -127.5 -75.5t-36.5 -104.5q0 -69 48 -105.5t139 -36.5q39 0 95.5 9t121.5 26z" />
    <glyph glyph-name="ccedilla" unicode="&#xe7;" horiz-adv-x="901" 
d="M831 16q-77 -22 -144.5 -33.5t-125.5 -11.5q-231 0 -359 135t-128 379q0 263 141 413.5t385 150.5q55 0 119.5 -10t150.5 -31v-154l-3 1q-184 56 -273 56q-173 0 -263.5 -110t-90.5 -320q0 -185 81.5 -278.5t243.5 -93.5q54 0 123 14.5t178 50.5zM290 -424v88
q82 -18 143.5 -27.5t102.5 -9.5q60 0 90.5 21.5t30.5 62.5q0 52 -31.5 75.5t-101.5 23.5q-17 0 -31 -1t-27 -1v192h72v-106h23q111 0 169 -45t58 -132q0 -89 -63 -135.5t-185 -46.5q-47 0 -108 10t-142 31z" />
    <glyph glyph-name="eacute" unicode="&#xe9;" horiz-adv-x="1010" 
d="M262 680h537q0 111 -62.5 170t-179.5 59q-116 0 -194.5 -61t-100.5 -168zM244 547q-1 -9 -2 -24q-2 -46 -2 -64q0 -178 80 -267.5t239 -89.5q64 0 126.5 14t172.5 60l-18 -160q-99 -24 -166 -34.5t-121 -10.5q-226 0 -352.5 134.5t-126.5 373.5q0 260 137 415t364 155
q193 0 295.5 -107t102.5 -309q0 -10 -2 -40.5t-2 -45.5h-725zM402 1159l208 348h181l-283 -348h-106z" />
    <glyph glyph-name="egrave" unicode="&#xe8;" horiz-adv-x="1010" 
d="M262 680h537q0 111 -62.5 170t-179.5 59q-116 0 -194.5 -61t-100.5 -168zM244 547q-1 -9 -2 -24q-2 -46 -2 -64q0 -178 80 -267.5t239 -89.5q64 0 126.5 14t172.5 60l-18 -160q-99 -24 -166 -34.5t-121 -10.5q-226 0 -352.5 134.5t-126.5 373.5q0 260 137 415t364 155
q193 0 295.5 -107t102.5 -309q0 -10 -2 -40.5t-2 -45.5h-725zM676 1159h-107l-280 348h178z" />
    <glyph glyph-name="ecircumflex" unicode="&#xea;" horiz-adv-x="1010" 
d="M262 680h537q0 111 -62.5 170t-179.5 59q-116 0 -194.5 -61t-100.5 -168zM244 547q-1 -9 -2 -24q-2 -46 -2 -64q0 -178 80 -267.5t239 -89.5q64 0 126.5 14t172.5 60l-18 -160q-99 -24 -166 -34.5t-121 -10.5q-226 0 -352.5 134.5t-126.5 373.5q0 260 137 415t364 155
q193 0 295.5 -107t102.5 -309q0 -10 -2 -40.5t-2 -45.5h-725zM254 1159l197 348h176l198 -348h-106l-180 242l-180 -242h-105z" />
    <glyph glyph-name="edieresis" unicode="&#xeb;" horiz-adv-x="1010" 
d="M262 680h537q0 111 -62.5 170t-179.5 59q-116 0 -194.5 -61t-100.5 -168zM244 547q-1 -9 -2 -24q-2 -46 -2 -64q0 -178 80 -267.5t239 -89.5q64 0 126.5 14t172.5 60l-18 -160q-99 -24 -166 -34.5t-121 -10.5q-226 0 -352.5 134.5t-126.5 373.5q0 260 137 415t364 155
q193 0 295.5 -107t102.5 -309q0 -10 -2 -40.5t-2 -45.5h-725zM281 1223v188h159v-188h-159zM637 1223v188h160v-188h-160z" />
    <glyph glyph-name="iacute" unicode="&#xed;" horiz-adv-x="451" 
d="M102 0q23 251 34 490.5t11 472.5v57h195q-23 -251 -34 -490.5t-11 -472.5v-57h-195zM121 1159l208 348h181l-283 -348h-106z" />
    <glyph glyph-name="igrave" unicode="&#xec;" horiz-adv-x="451" 
d="M102 0q23 251 34 490.5t11 472.5v57h195q-23 -251 -34 -490.5t-11 -472.5v-57h-195zM395 1159h-107l-280 348h178z" />
    <glyph glyph-name="icircumflex" unicode="&#xee;" horiz-adv-x="451" 
d="M102 0q23 251 34 490.5t11 472.5v57h195q-23 -251 -34 -490.5t-11 -472.5v-57h-195zM-27 1159l197 348h176l198 -348h-106l-180 242l-180 -242h-105z" />
    <glyph glyph-name="idieresis" unicode="&#xef;" horiz-adv-x="451" 
d="M102 0q23 251 34 490.5t11 472.5v57h195q-23 -251 -34 -490.5t-11 -472.5v-57h-195zM0 1223v188h159v-188h-159zM356 1223v188h160v-188h-160z" />
    <glyph glyph-name="ntilde" unicode="&#xf1;" horiz-adv-x="1161" 
d="M852 0q18 185 27.5 352.5t9.5 290.5q0 157 -52.5 216t-181.5 59q-218 0 -303.5 -166t-85.5 -672v-80h-178q23 237 34 492t11 528h160v-160q71 97 167.5 143t229.5 46q186 0 274.5 -78.5t88.5 -245.5q0 -30 -7.5 -235.5t-7.5 -383.5v-106h-186zM906 1425
q-25 -92 -75.5 -141t-121.5 -49q-17 0 -33.5 2.5t-33.5 7.5l-80 27q-12 4 -26 6t-28 2q-36 0 -58.5 -16t-37.5 -52h-88q21 93 72 142t127 49q17 0 32 -2t27 -6l78 -29q13 -4 29 -6t32 -2q36 0 60 17t37 50h88z" />
    <glyph glyph-name="oacute" unicode="&#xf3;" horiz-adv-x="1165" 
d="M594 909q-173 0 -262.5 -110t-89.5 -322q0 -183 82.5 -275.5t244.5 -92.5q173 0 263 109t90 319q0 187 -82 279.5t-246 92.5zM76 485q0 263 140.5 413.5t385.5 150.5q235 0 361.5 -134.5t126.5 -384.5q0 -258 -137.5 -408.5t-370.5 -150.5q-245 0 -375.5 133t-130.5 381z
M480 1159l208 348h181l-283 -348h-106z" />
    <glyph glyph-name="ograve" unicode="&#xf2;" horiz-adv-x="1165" 
d="M594 909q-173 0 -262.5 -110t-89.5 -322q0 -183 82.5 -275.5t244.5 -92.5q173 0 263 109t90 319q0 187 -82 279.5t-246 92.5zM76 485q0 263 140.5 413.5t385.5 150.5q235 0 361.5 -134.5t126.5 -384.5q0 -258 -137.5 -408.5t-370.5 -150.5q-245 0 -375.5 133t-130.5 381z
M754 1159h-107l-280 348h178z" />
    <glyph glyph-name="ocircumflex" unicode="&#xf4;" horiz-adv-x="1165" 
d="M594 909q-173 0 -262.5 -110t-89.5 -322q0 -183 82.5 -275.5t244.5 -92.5q173 0 263 109t90 319q0 187 -82 279.5t-246 92.5zM76 485q0 263 140.5 413.5t385.5 150.5q235 0 361.5 -134.5t126.5 -384.5q0 -258 -137.5 -408.5t-370.5 -150.5q-245 0 -375.5 133t-130.5 381z
M332 1159l197 348h176l198 -348h-106l-180 242l-180 -242h-105z" />
    <glyph glyph-name="odieresis" unicode="&#xf6;" horiz-adv-x="1165" 
d="M594 909q-173 0 -262.5 -110t-89.5 -322q0 -183 82.5 -275.5t244.5 -92.5q173 0 263 109t90 319q0 187 -82 279.5t-246 92.5zM76 485q0 263 140.5 413.5t385.5 150.5q235 0 361.5 -134.5t126.5 -384.5q0 -258 -137.5 -408.5t-370.5 -150.5q-245 0 -375.5 133t-130.5 381z
M359 1223v188h159v-188h-159zM715 1223v188h160v-188h-160z" />
    <glyph glyph-name="otilde" unicode="&#xf5;" horiz-adv-x="1165" 
d="M594 909q-173 0 -262.5 -110t-89.5 -322q0 -183 82.5 -275.5t244.5 -92.5q173 0 263 109t90 319q0 187 -82 279.5t-246 92.5zM76 485q0 263 140.5 413.5t385.5 150.5q235 0 361.5 -134.5t126.5 -384.5q0 -258 -137.5 -408.5t-370.5 -150.5q-245 0 -375.5 133t-130.5 381z
M908 1425q-25 -92 -75.5 -141t-121.5 -49q-17 0 -33.5 2.5t-33.5 7.5l-80 27q-12 4 -26 6t-28 2q-36 0 -58.5 -16t-37.5 -52h-88q21 93 72 142t127 49q17 0 32 -2t27 -6l78 -29q13 -4 29 -6t32 -2q36 0 60 17t37 50h88z" />
    <glyph glyph-name="uacute" unicode="&#xfa;" horiz-adv-x="1161" 
d="M311 1020q-18 -193 -28.5 -362.5t-10.5 -280.5q0 -156 53.5 -215.5t182.5 -59.5q218 0 302.5 164t84.5 672v82h180q-23 -248 -35 -503.5t-12 -516.5h-160v158q-70 -96 -165.5 -141.5t-229.5 -45.5q-187 0 -275.5 78t-88.5 244q0 31 7 239t7 383v105h188zM478 1159
l208 348h181l-283 -348h-106z" />
    <glyph glyph-name="ugrave" unicode="&#xf9;" horiz-adv-x="1161" 
d="M311 1020q-18 -193 -28.5 -362.5t-10.5 -280.5q0 -156 53.5 -215.5t182.5 -59.5q218 0 302.5 164t84.5 672v82h180q-23 -248 -35 -503.5t-12 -516.5h-160v158q-70 -96 -165.5 -141.5t-229.5 -45.5q-187 0 -275.5 78t-88.5 244q0 31 7 239t7 383v105h188zM752 1159h-107
l-280 348h178z" />
    <glyph glyph-name="ucircumflex" unicode="&#xfb;" horiz-adv-x="1161" 
d="M311 1020q-18 -193 -28.5 -362.5t-10.5 -280.5q0 -156 53.5 -215.5t182.5 -59.5q218 0 302.5 164t84.5 672v82h180q-23 -248 -35 -503.5t-12 -516.5h-160v158q-70 -96 -165.5 -141.5t-229.5 -45.5q-187 0 -275.5 78t-88.5 244q0 31 7 239t7 383v105h188zM330 1159
l197 348h176l198 -348h-106l-180 242l-180 -242h-105z" />
    <glyph glyph-name="udieresis" unicode="&#xfc;" horiz-adv-x="1161" 
d="M311 1020q-18 -193 -28.5 -362.5t-10.5 -280.5q0 -156 53.5 -215.5t182.5 -59.5q218 0 302.5 164t84.5 672v82h180q-23 -248 -35 -503.5t-12 -516.5h-160v158q-70 -96 -165.5 -141.5t-229.5 -45.5q-187 0 -275.5 78t-88.5 244q0 31 7 239t7 383v105h188zM357 1223v188
h159v-188h-159zM713 1223v188h160v-188h-160z" />
    <glyph glyph-name="dagger" unicode="&#x2020;" 
d="M416 -352q2 93 6 233.5t4 181.5q0 132 -6.5 247t-18.5 202q33 123 49.5 203t24.5 149l-328 -49l11 186l321 -51l-30 406h202l-88 -406l334 51l-8 -186l-328 51q5 -76 14.5 -161t26.5 -203q-51 -211 -101 -843l-1 -11h-84z" />
    <glyph glyph-name="degree" unicode="&#xb0;" horiz-adv-x="674" 
d="M539 1171q0 84 -58.5 142.5t-142.5 58.5t-143.5 -58.5t-59.5 -142.5t59.5 -143t143.5 -59t142.5 59t58.5 143zM338 1454q117 0 200 -83t83 -200q0 -116 -83.5 -199t-201.5 -83t-199.5 82t-81.5 200q0 119 82.5 201t200.5 82z" />
    <glyph glyph-name="cent" unicode="&#xa2;" horiz-adv-x="1128" 
d="M590 1061q-131 -11 -204 -119t-73 -293q0 -170 61 -261t189 -114zM938 1010q-66 26 -121 40.5t-106 18.5l-27 -805q58 0 120.5 15t129.5 45l-37 -158q-74 -20 -125 -30t-94 -13l-4 -133h-121l4 141q-190 10 -300 142.5t-110 353.5q0 248 118.5 400t330.5 175l4 154h123
l-6 -158h10q35 0 80.5 -8t130.5 -31v-149z" />
    <glyph glyph-name="sterling" unicode="&#xa3;" horiz-adv-x="1128" 
d="M94 100q107 92 159 182.5t52 184.5q0 39 -5 77.5t-15 78.5h-199l27 133h120q-53 132 -68 190t-15 105q0 160 114 245.5t328 85.5q86 0 166 -12t155 -37l9 -157q-96 37 -174.5 55t-149.5 18q-128 0 -203.5 -55t-75.5 -147q0 -30 8 -67.5t25 -88.5l45 -135h490l-29 -133
l-428 -1l2 -6q27 -104 27 -155q0 -59 -26 -128t-71 -130h21q93 0 242 -51.5t217 -51.5q56 0 111.5 19.5t115.5 60.5l-18 -168q-58 -26 -116 -38.5t-118 -12.5q-79 0 -181 38t-116 38q-5 0 -29 7q-87 26 -159 26q-60 0 -115 -25t-125 -84z" />
    <glyph glyph-name="section" unicode="&#xa7;" 
d="M410 309l178 -108q92 68 129 122.5t37 118.5t-39 117t-115 92l-182 97q-86 -59 -123 -114t-37 -120q0 -59 33 -105t119 -100zM197 -281q54 -24 110.5 -35.5t120.5 -11.5q106 0 162.5 50t56.5 143q0 75 -35 126.5t-131 106.5l-155 90q-130 77 -179 148t-49 170t57.5 184.5
t166.5 147.5q-63 53 -93 114t-30 135q0 140 105 227t276 87q55 0 117.5 -11.5t129.5 -33.5l-18 -139q-66 28 -125.5 42.5t-105.5 14.5q-101 0 -160.5 -54t-59.5 -145q0 -69 40.5 -120.5t162.5 -120.5l139 -78q105 -59 155 -135.5t50 -178.5q0 -96 -51 -178t-158 -155
q61 -50 89 -107.5t28 -130.5q0 -157 -107.5 -243.5t-304.5 -86.5q-67 0 -126.5 12t-112.5 35z" />
    <glyph glyph-name="bullet" unicode="&#x2022;" horiz-adv-x="1208" 
d="M307 762q0 123 87 209t210 86q122 0 208.5 -86.5t86.5 -208.5t-87.5 -209.5t-209.5 -87.5q-123 0 -209 87t-86 210z" />
    <glyph glyph-name="paragraph" unicode="&#xb6;" 
d="M948 1401h-125v-1401h-94v1401h-182v-1401h-96v782q-173 8 -274 102.5t-101 245.5q0 157 107.5 253t285.5 96h479v-78z" />
    <glyph glyph-name="germandbls" unicode="&#xdf;" horiz-adv-x="1139" 
d="M88 0q33 344 46 708t20 394q33 145 139.5 212.5t304.5 67.5q159 0 245.5 -67.5t86.5 -192.5q0 -93 -12.5 -119t-57.5 -32q-95 -12 -133.5 -42t-38.5 -89q0 -31 14 -57t42 -48l210 -162q76 -58 107 -120.5t31 -151.5q0 -164 -109 -249t-319 -85q-58 0 -117 8t-127 25
l-6 162q91 -33 154.5 -47.5t115.5 -14.5q126 0 188 50t62 151q0 68 -29.5 117.5t-99.5 99.5l-143 103q-70 50 -97.5 98t-27.5 112q0 101 55.5 154.5t162.5 56.5q12 2 16.5 14.5t4.5 57.5q0 72 -49 109t-145 37q-149 0 -213 -69.5t-74 -246.5l-33 -645q-2 -49 -4.5 -128.5
t-4.5 -170.5h-165z" />
    <glyph glyph-name="registered" unicode="&#xae;" horiz-adv-x="1706" 
d="M846 1065h-144v-291h148q123 0 175 33t52 108q0 79 -54.5 114.5t-176.5 35.5zM872 1157q178 0 264.5 -57t86.5 -174q0 -89 -53 -148.5t-144 -75.5l188 -385h-157l-176 365h-179v-365h-141v840h311zM1501 721q0 133 -48 251.5t-138 209.5q-94 93 -211.5 141.5t-251.5 48.5
q-132 0 -247 -47t-204 -137q-94 -95 -144 -214t-50 -249q0 -127 49 -244t141 -211q91 -92 208 -141t245 -49q131 0 249.5 48.5t213.5 141.5q91 90 139.5 206t48.5 245zM852 1460q150 0 284 -55.5t240 -161.5q102 -102 156.5 -235.5t54.5 -282.5q0 -151 -54.5 -283
t-158.5 -233q-109 -106 -243.5 -162.5t-278.5 -56.5q-145 0 -278.5 56t-239.5 163q-105 104 -160 237t-55 279q0 147 57 282t164 242q101 103 232 157t280 54z" />
    <glyph glyph-name="copyright" unicode="&#xa9;" horiz-adv-x="1706" 
d="M1065 911q-15 77 -70.5 120.5t-138.5 43.5q-117 0 -182.5 -92.5t-65.5 -259.5q0 -160 66.5 -252t181.5 -92q87 0 145.5 48.5t73.5 133.5h129q-11 -127 -109 -207t-245 -80q-176 0 -280.5 121t-104.5 326q0 208 107.5 332.5t287.5 124.5q137 0 230 -74.5t104 -192.5h-129z
M1501 725q0 130 -49 249t-139 210q-92 92 -210 140t-251 48q-132 0 -247.5 -47.5t-205.5 -138.5q-93 -95 -142.5 -214t-49.5 -247q0 -127 49 -244t141 -211q93 -92 209.5 -141t245.5 -49t248.5 50t214.5 142q91 90 138.5 205.5t47.5 247.5zM852 1460q151 0 285 -55t239 -160
q102 -102 156.5 -236t54.5 -284q0 -151 -54 -283t-157 -233q-109 -106 -244.5 -162.5t-279.5 -56.5q-146 0 -278 55.5t-238 161.5q-106 105 -161.5 238.5t-55.5 279.5q0 145 56.5 279.5t162.5 242.5q102 104 234 158.5t280 54.5z" />
    <glyph glyph-name="trademark" unicode="&#x2122;" horiz-adv-x="1706" 
d="M948 1456l160 -405l149 405h132v-534h-82v458l-172 -458h-54l-180 458v-458h-82v534h129zM694 1456v-67h-172v-467h-94v467h-174v67h440z" />
    <glyph glyph-name="acute" unicode="&#xb4;" 
d="M408 1159l208 348h181l-283 -348h-106z" />
    <glyph glyph-name="dieresis" unicode="&#xa8;" 
d="M287 1223v188h159v-188h-159zM643 1223v188h160v-188h-160z" />
    <glyph glyph-name="notequal" unicode="&#x2260;" horiz-adv-x="1706" 
d="M1298 1110l-196 -250h350v-115h-424l-211 -270h635v-115h-709l-251 -319l-89 70l197 249h-346v115h420l211 270h-631v115h704l252 320z" />
    <glyph glyph-name="AE" unicode="&#xc6;" horiz-adv-x="1688" 
d="M717 1231l-260 -514h364zM-80 0l621 1198q17 35 34 74.5t33 83.5h1043l-13 -160q-48 2 -124 6q-89 4 -101 4h-520q0 -35 14 -101l6 -33l60 -292h366q6 0 75 3t134 5l-10 -157q-31 3 -66 4.5t-96 1.5h-106h-273l35 -200q2 -11 7 -39q22 -130 45 -236q103 -3 177 -4.5
t121 -1.5q44 0 96 1.5t111 3.5l-8 -161h-647q-2 50 -17 142q-2 14 -4 22l-73 411h-457l-186 -380l-2 -5q-47 -99 -93 -190h-182z" />
    <glyph glyph-name="Oslash" unicode="&#xd8;" horiz-adv-x="1640" 
d="M256 -141l123 211q-146 88 -220.5 234.5t-74.5 344.5q0 346 196.5 540.5t544.5 194.5q97 0 174 -10t131 -31l93 156h141l-121 -207q153 -85 232 -235.5t79 -356.5q0 -349 -202 -539t-574 -190q-74 0 -142.5 11t-141.5 34l-95 -157h-143zM1161 1153l-586 -997
q52 -22 109.5 -31.5t134.5 -9.5q262 0 404.5 155.5t142.5 440.5q0 155 -49 260t-156 182zM463 211l586 997q-56 17 -113 25t-117 8q-264 0 -405.5 -151.5t-141.5 -434.5q0 -156 49 -270t142 -174z" />
    <glyph glyph-name="infinity" unicode="&#x221e;" horiz-adv-x="1706" 
d="M905 559q51 -95 119 -141.5t156 -46.5q102 0 168.5 71t66.5 181q0 108 -61 179.5t-152 71.5q-85 0 -153.5 -72.5t-143.5 -242.5zM803 666q-51 95 -119 142.5t-154 47.5q-105 0 -171 -71t-66 -183q0 -108 61 -179t152 -71q85 0 152 69t145 245zM840 727q67 138 146 204
t175 66q134 0 226 -108.5t92 -272.5q0 -171 -82 -277t-213 -106q-96 0 -169 60t-149 201q-71 -138 -148 -201.5t-173 -63.5q-134 0 -226 109t-92 272q0 172 82.5 277.5t214.5 105.5q97 0 172 -63t144 -203z" />
    <glyph glyph-name="plusminus" unicode="&#xb1;" horiz-adv-x="1706" 
d="M1452 158v-117h-1198v117h1198zM913 1180v-344h539v-117h-539v-344h-118v344h-541v117h541v344h118z" />
    <glyph glyph-name="lessequal" unicode="&#x2264;" horiz-adv-x="1706" 
d="M1444 150v-117h-1182v117h1182zM1444 1067l-977 -324l977 -323v-125l-1182 399v101l1182 397v-125z" />
    <glyph glyph-name="greaterequal" unicode="&#x2265;" horiz-adv-x="1706" 
d="M1444 150v-117h-1182v117h1182zM1444 795v-101l-1182 -399v125l979 323l-979 324v125z" />
    <glyph glyph-name="yen" unicode="&#xa5;" horiz-adv-x="1042" 
d="M404 0l1 15q15 195 15 214l12 371q-38 0 -104.5 1t-96.5 1q-51 0 -103.5 -1t-115.5 -3l4 112q66 -2 112 -2.5t89 -0.5q26 0 82 1t86 1l-78 133q-67 0 -136.5 -1t-147.5 -3l6 114q18 -1 37 -1.5t51 -0.5h63h64l-240 406h195q22 -52 38.5 -86t30.5 -60l258 -450l240 418
q16 29 39.5 76t48.5 102h182l-239 -406h110q23 0 50.5 0.5t58.5 1.5l-6 -114q-36 2 -89.5 3t-189.5 1l-78 -133h103q50 0 105 0.5t142 3.5l-8 -115q-76 2 -125.5 3t-95.5 1q-26 0 -85.5 -1t-92.5 -1l-18 -426v-31q0 -58 0.5 -88t0.5 -55h-175z" />
    <glyph glyph-name="mu" unicode="&#xb5;" horiz-adv-x="1128" 
d="M362 1069l-126 -595q-8 -33 -11.5 -67t-3.5 -71q0 -109 57 -168t160 -59q125 0 208 101t128 308l121 551h156l-162 -754q-12 -52 -17.5 -84t-5.5 -51q0 -32 18.5 -48.5t53.5 -16.5q9 0 17.5 0.5t17.5 1.5l-27 -125q-21 -5 -44 -7.5t-48 -2.5q-70 0 -104.5 35t-40.5 112
q-41 -70 -117 -108.5t-172 -38.5q-87 0 -152.5 34t-109.5 103l-113 -545h-156l316 1495h157z" />
    <glyph glyph-name="partialdiff" unicode="&#x2202;" horiz-adv-x="1044" 
d="M754 604q13 81 19.5 161.5t6.5 158.5q0 140 -39.5 216.5t-111.5 76.5q-53 0 -117 -63.5t-109 -63.5q-29 0 -51 21.5t-22 51.5q0 59 68 105.5t163 46.5q171 0 273 -152.5t102 -412.5q0 -335 -139 -555t-344 -220q-147 0 -241.5 106.5t-94.5 272.5q0 189 108.5 316
t266.5 127q99 0 162.5 -47t99.5 -146zM709 483q0 117 -45 180.5t-127 63.5q-113 0 -184.5 -127.5t-71.5 -333.5q0 -117 44 -178t128 -61q111 0 183.5 128t72.5 328z" />
    <glyph glyph-name="summation" unicode="&#x2211;" horiz-adv-x="1346" 
d="M51 1473h1239v-166h-989l690 -744l-719 -792h1035v-164h-1289v139l738 813l-705 758v156z" />
    <glyph glyph-name="product" unicode="&#x220f;" horiz-adv-x="1528" 
d="M160 1473h1208v-1866h-201v1693h-809v-1693h-198v1866z" />
    <glyph glyph-name="pi" unicode="&#x3c0;" horiz-adv-x="1186" 
d="M1139 930h-185l-110 -516q-14 -66 -21.5 -114.5t-7.5 -74.5q0 -57 24 -81.5t81 -24.5q21 0 46 2.5t52 7.5l-29 -129l-5 -1q-64 -15 -99 -15q-110 0 -168 51.5t-58 150.5q0 48 11.5 121t44.5 230l84 393h-348l-197 -930h-158l197 930h-39q-55 0 -84.5 -31t-40.5 -100h-145
q26 153 94 211.5t223 58.5h866z" />
    <glyph glyph-name="integral" unicode="&#x222b;" horiz-adv-x="1020" 
d="M301 -268q103 0 116 664q3 141 5 216q12 503 102 719.5t281 216.5q76 0 122 -39t46 -104q0 -48 -31 -77.5t-82 -29.5q-53 0 -85 35t-32 92q0 8 -6 15.5t-14 7.5q-105 0 -119 -634q-3 -157 -6 -245q-10 -308 -31.5 -461t-62.5 -247q-49 -114 -123 -173t-168 -59
q-73 0 -119.5 38t-46.5 97q0 53 31.5 84t83.5 31q47 0 79.5 -29t32.5 -67q0 -24 7.5 -37.5t19.5 -13.5z" />
    <glyph glyph-name="ordfeminine" unicode="&#xaa;" horiz-adv-x="758" 
d="M453 643q-64 -10 -101.5 -14t-68.5 -4q-115 0 -182.5 50t-67.5 134q0 74 40.5 120t137.5 81l174 57q98 33 132 60t34 69q0 47 -39.5 69.5t-122.5 22.5q-60 0 -125.5 -14.5t-136.5 -42.5l18 108q66 19 133 28t134 9q140 0 201 -43t61 -147v-58l-17 -364v-121h-139
q10 60 14 173v3l14 227q-18 -15 -40 -26.5t-50 -20.5l-167 -59q-67 -23 -95 -52.5t-28 -74.5q0 -47 36 -72.5t103 -25.5q29 0 71.5 6t92.5 18z" />
    <glyph glyph-name="ordmasculine" unicode="&#xba;" horiz-adv-x="874" 
d="M446 1280q-129 0 -196.5 -77.5t-67.5 -225.5q0 -128 62 -193t184 -65q129 0 196.5 76.5t67.5 222.5q0 131 -61 196.5t-185 65.5zM57 983q0 184 105.5 288.5t290.5 104.5q175 0 269.5 -94t94.5 -268q0 -181 -103 -286t-278 -105q-183 0 -281 93t-98 267z" />
    <glyph glyph-name="Omega" unicode="&#x3a9;" horiz-adv-x="1573" 
d="M1473 156v-156h-590v150q193 111 296 279t103 374q0 251 -137 405t-359 154q-221 0 -359 -155t-138 -404q0 -205 103 -373.5t298 -279.5v-150h-590v156h332q-164 133 -242.5 285t-78.5 335q0 329 188.5 533t486.5 204q299 0 487.5 -202.5t188.5 -530.5
q0 -186 -78.5 -338.5t-242.5 -285.5h332z" />
    <glyph glyph-name="ae" unicode="&#xe6;" horiz-adv-x="1616" 
d="M846 680h536v6q0 108 -62 165.5t-177 57.5q-116 0 -196 -61.5t-101 -167.5zM590 0q-93 -16 -141.5 -21.5t-88.5 -5.5q-152 0 -241.5 72t-89.5 193q0 105 54 171t183 113l277 101q97 36 136.5 73.5t39.5 91.5q0 69 -53 101.5t-164 32.5q-81 0 -166.5 -20t-181.5 -62
l24 153q84 27 173 40.5t186 13.5q124 0 201 -27.5t114 -83.5q65 56 145 84.5t172 28.5q193 0 295.5 -107t102.5 -309q0 -10 -2 -40.5t-2 -45.5h-725q-1 -21 -1.5 -42t-0.5 -52q0 -174 80.5 -262.5t238.5 -88.5q75 0 147.5 18.5t147.5 55.5l-16 -160q-84 -21 -156 -32
t-135 -11q-220 0 -345.5 129.5t-125.5 356.5q0 22 1.5 45t4.5 46q-20 -12 -42 -23.5t-50 -22.5l-178 -68q-130 -49 -165.5 -89t-35.5 -103q0 -69 44 -105.5t128 -36.5q44 0 102.5 9.5t130.5 27.5z" />
    <glyph glyph-name="oslash" unicode="&#xf8;" horiz-adv-x="1165" 
d="M836 829l-392 -702q34 -9 67 -13.5t67 -4.5q168 0 259 109.5t91 311.5q0 108 -23 183t-69 116zM336 184l393 707q-32 10 -67 15t-72 5q-170 0 -261 -109.5t-91 -314.5q0 -103 24.5 -179t73.5 -124zM174 -125l96 174q-96 70 -145 178.5t-49 249.5q0 268 137.5 420
t380.5 152q59 0 106.5 -7t92.5 -22l69 127h137l-98 -180q94 -65 141.5 -171.5t47.5 -252.5q0 -276 -139 -425t-396 -149q-66 0 -103.5 6.5t-70.5 20.5l-68 -121h-139z" />
    <glyph glyph-name="questiondown" unicode="&#xbf;" horiz-adv-x="1020" 
d="M698 1370l-12 -192h-184l6 192h190zM668 1085l-6 -228q-2 -51 -14 -79.5t-40 -56.5l-196 -197q-59 -58 -91 -123t-32 -125q0 -90 75.5 -138t219.5 -48q73 0 149.5 13t214.5 55l-20 -142q-82 -22 -170 -33.5t-185 -11.5q-226 0 -339 79.5t-113 238.5q0 91 43.5 178
t136.5 180l156 156q19 19 29 47t12 68l8 167h162z" />
    <glyph glyph-name="exclamdown" unicode="&#xa1;" horiz-adv-x="563" 
d="M434 1356l-12 -193h-184l6 193h190zM391 1075l-35 -844l-1 -4t-1 -10q0 -46 -0.5 -101t-1.5 -116h-196q1 14 8 106.5t14 171.5l68 797h145z" />
    <glyph glyph-name="logicalnot" unicode="&#xac;" horiz-adv-x="1706" 
d="M1452 858v-502h-115v385h-1083v117h1198z" />
    <glyph glyph-name="radical" unicode="&#x221a;" horiz-adv-x="1288" 
d="M1288 1647v-82h-119l-594 -1606h-53l-323 893l-119 -43l-23 68l262 92l265 -729l522 1407h182z" />
    <glyph glyph-name="florin" unicode="&#x192;" horiz-adv-x="1128" 
d="M999 1249q-59 25 -88 33t-51 8q-69 0 -106.5 -56t-67.5 -230l-27 -156h220v-129h-244l-107 -641q-53 -325 -129.5 -429t-224.5 -104q-63 0 -122 18.5t-107 53.5l26 150q53 -39 97 -56.5t90 -17.5q62 0 103.5 47.5t57.5 138.5l150 840h-201v129h226l24 147
q38 248 110.5 345.5t207.5 97.5q51 0 99.5 -10.5t96.5 -32.5z" />
    <glyph glyph-name="approxequal" unicode="&#x2248;" horiz-adv-x="1706" 
d="M1530 453q-107 -75 -202 -110.5t-187 -35.5q-98 0 -288 69.5t-290 69.5q-82 0 -169.5 -35.5t-215.5 -123.5v131q106 73 202 109t185 36q111 0 301.5 -68.5t276.5 -68.5q85 0 173.5 35.5t213.5 122.5v-131zM1530 803q-104 -73 -200 -108.5t-187 -35.5q-100 0 -290 69
t-290 69q-83 0 -171.5 -36t-213.5 -122v131q106 73 202 109t185 36q111 0 300.5 -68.5t277.5 -68.5q87 0 175 35t212 121v-131z" />
    <glyph glyph-name="Delta" unicode="&#x2206;" horiz-adv-x="1356" 
d="M1122 158l-444 1138l-445 -1138h889zM780 1473l586 -1473h-1374l586 1473h202z" />
    <glyph glyph-name="guillemotleft" unicode="&#xab;" horiz-adv-x="1055" 
d="M737 147l-170 367l195 369h153l-165 -369l139 -367h-152zM354 147l-170 367l195 369h153l-165 -369l139 -367h-152z" />
    <glyph glyph-name="guillemotright" unicode="&#xbb;" horiz-adv-x="1055" 
d="M340 883l172 -367l-195 -369h-155l168 369l-140 367h150zM723 883l172 -367l-195 -369h-155l168 369l-140 367h150z" />
    <glyph glyph-name="ellipsis" unicode="&#x2026;" horiz-adv-x="2048" 
d="M239 199h191l-13 -199h-188zM921 199h191l-13 -199h-188zM1605 199h191l-13 -199h-188z" />
    <glyph glyph-name="nonbreakingspace" unicode="&#xa0;" horiz-adv-x="1128" 
 />
    <glyph glyph-name="Agrave" unicode="&#xc0;" horiz-adv-x="1241" 
d="M666 1241l-232 -491h410zM1284 0h-194q-10 50 -19.5 88t-21.5 72l-154 446h-522l-187 -401q-14 -34 -34 -87.5t-41 -117.5h-193l563 1192q14 30 30.5 72t33.5 92l268 -1q5 -35 14 -69.5t25 -75.5zM815 1466h-107l-280 348h178z" />
    <glyph glyph-name="Atilde" unicode="&#xc3;" horiz-adv-x="1241" 
d="M666 1241l-232 -491h410zM1284 0h-194q-10 50 -19.5 88t-21.5 72l-154 446h-522l-187 -401q-14 -34 -34 -87.5t-41 -117.5h-193l563 1192q14 30 30.5 72t33.5 92l268 -1q5 -35 14 -69.5t25 -75.5zM969 1732q-25 -92 -75.5 -141t-121.5 -49q-17 0 -33.5 2.5t-33.5 7.5
l-80 27q-12 4 -26 6t-28 2q-36 0 -58.5 -16t-37.5 -52h-88q21 93 72 142t127 49q17 0 32 -2t27 -6l78 -29q13 -4 29 -6t32 -2q36 0 60 17t37 50h88z" />
    <glyph glyph-name="Otilde" unicode="&#xd5;" horiz-adv-x="1640" 
d="M272 645q0 -255 142 -392.5t405 -137.5q265 0 406 152.5t141 439.5q0 259 -141 396.5t-406 137.5q-267 0 -407 -152.5t-140 -443.5zM786 -29q-329 0 -515.5 179t-186.5 495q0 350 199 544.5t559 194.5q337 0 524.5 -180t187.5 -504q0 -345 -201 -537t-567 -192z
M1162 1732q-25 -92 -75.5 -141t-121.5 -49q-17 0 -33.5 2.5t-33.5 7.5l-80 27q-12 4 -26 6t-28 2q-36 0 -58.5 -16t-37.5 -52h-88q21 93 72 142t127 49q17 0 32 -2t27 -6l78 -29q13 -4 29 -6t32 -2q36 0 60 17t37 50h88z" />
    <glyph glyph-name="OE" unicode="&#x152;" horiz-adv-x="2009" 
d="M1069 148q24 256 36.5 494t12.5 445v140h-41q-50 0 -140.5 8t-129.5 8q-261 0 -402 -153t-141 -435q0 -249 121.5 -391.5t331.5 -142.5q56 0 175.5 11.5t176.5 15.5zM1939 0h-913q-84 0 -189 -6t-126 -6q-310 0 -471.5 165t-161.5 482q0 352 186.5 547.5t521.5 195.5
q55 0 164.5 -11t163.5 -11h895l-11 -160q-80 4 -143 6t-83 2h-477q-2 -10 -5.5 -26t-3.5 -21q0 -6 -1.5 -33t-2.5 -49l-12 -295h428q60 0 113.5 2t103.5 6l-13 -157q-30 3 -65 4.5t-98 1.5h-111h-360l-6 -197q-2 -63 -3.5 -118.5t-1.5 -92.5q0 -14 1 -30.5t4 -46.5h294
q87 0 183.5 2.5t213.5 7.5z" />
    <glyph glyph-name="oe" unicode="&#x153;" horiz-adv-x="1853" 
d="M1010 842q63 101 166 154t235 53q193 0 295 -107t102 -309q0 -6 -1.5 -35.5t-2.5 -52.5h-717q0 -9 -1 -25q-3 -50 -3 -67q0 -173 80.5 -262t237.5 -89q64 0 127 15t164 59l-17 -160q-90 -23 -161.5 -34t-129.5 -11q-135 0 -235 52t-162 153q-74 -104 -178.5 -154.5
t-247.5 -50.5q-235 0 -364 134.5t-129 379.5q0 265 141.5 414.5t392.5 149.5q140 0 244.5 -53.5t163.5 -153.5zM1104 680h530v4q0 106 -62 166.5t-171 60.5q-117 0 -195.5 -61t-101.5 -170zM588 909q-172 0 -263.5 -111t-91.5 -323q0 -177 85 -271.5t243 -94.5
q173 0 263.5 109.5t90.5 318.5q0 186 -81.5 279t-245.5 93z" />
    <glyph glyph-name="endash" unicode="&#x2013;" 
d="M1024 580v-119h-1024v119h1024z" />
    <glyph glyph-name="emdash" unicode="&#x2014;" horiz-adv-x="2048" 
d="M0 580h2048v-119h-2048v119z" />
    <glyph glyph-name="quotedblleft" unicode="&#x201c;" horiz-adv-x="901" 
d="M711 1042h-217l198 342h129zM354 1042h-217l199 342h129z" />
    <glyph glyph-name="quotedblright" unicode="&#x201d;" horiz-adv-x="901" 
d="M291 1384h217l-199 -342h-129zM647 1384h217l-198 -342h-129z" />
    <glyph glyph-name="quoteleft" unicode="&#x2018;" horiz-adv-x="563" 
d="M369 1042h-217l198 342h129z" />
    <glyph glyph-name="quoteright" unicode="&#x2019;" horiz-adv-x="563" 
d="M285 1384h217l-199 -342h-129z" />
    <glyph glyph-name="divide" unicode="&#xf7;" horiz-adv-x="1706" 
d="M854 365q47 0 81 -34t34 -81t-33.5 -81t-81.5 -34t-81.5 33.5t-33.5 81.5t34 81.5t81 33.5zM1452 670v-117h-1198v117h1198zM854 1085q48 0 81.5 -33.5t33.5 -80.5q0 -48 -33.5 -81.5t-81.5 -33.5q-49 0 -82 33.5t-33 81.5q0 47 34 80.5t81 33.5z" />
    <glyph glyph-name="lozenge" unicode="&#x25ca;" horiz-adv-x="1012" 
d="M506 1409l-385 -817l385 -825l385 825zM506 1653l500 -1061l-500 -1069l-500 1069z" />
    <glyph glyph-name="ydieresis" unicode="&#xff;" horiz-adv-x="952" 
d="M438 -203q-68 -146 -147.5 -203t-210.5 -57q-43 0 -88.5 5t-95.5 16l-11 143q45 -15 86.5 -23t79.5 -8q80 0 138.5 41t95.5 123l80 180l-269 709q-12 35 -43.5 116.5t-70.5 180.5h202l234 -682q13 -39 23.5 -78t17.5 -77q14 38 30.5 79.5t36.5 85.5l189 426
q19 44 43.5 107t52.5 139h190zM252 1223v188h159v-188h-159zM608 1223v188h160v-188h-160z" />
    <glyph glyph-name="Ydieresis" unicode="&#x178;" horiz-adv-x="975" 
d="M394 0v14q16 196 16 215l14 381l-438 746h221q24 -58 38.5 -88t28.5 -54l252 -438l234 408q17 29 38.5 72t47.5 100h198l-442 -756l-18 -426v-31q0 -45 4 -137v-6h-194zM279 1530v188h159v-188h-159zM635 1530v188h160v-188h-160z" />
    <glyph glyph-name="fraction" unicode="&#x2215;" horiz-adv-x="342" 
d="M-213 0h-129l897 1384h127z" />
    <glyph glyph-name="currency" unicode="&#xa4;" horiz-adv-x="1128" 
d="M1073 1163q-87 41 -153.5 59.5t-124.5 18.5q-150 0 -254.5 -99t-139.5 -280q197 0 319.5 0.5t221.5 1.5l-23 -86q-217 2 -340 3t-196 1q-3 -24 -5.5 -54t-4.5 -85q178 0 295.5 0.5t215.5 1.5l-20 -86q-210 2 -318 3t-171 1q6 -201 103.5 -325.5t248.5 -124.5
q63 0 141.5 15t167.5 44l-22 -170q-75 -15 -157.5 -24t-139.5 -9q-232 0 -366.5 157t-145.5 437q-50 0 -96.5 -1t-73.5 -2l15 85q14 -1 44 -1.5t110 -0.5q3 55 5.5 85t5.5 54q-52 0 -100.5 -1t-73.5 -3l13 86q11 -1 48.5 -1.5t124.5 -0.5q47 244 199 383t365 139
q67 0 132.5 -14t139.5 -45z" />
    <glyph glyph-name="guilsinglleft" unicode="&#x2039;" horiz-adv-x="674" 
d="M354 147l-170 367l195 369h153l-165 -369l139 -367h-152z" />
    <glyph glyph-name="guilsinglright" unicode="&#x203a;" horiz-adv-x="674" 
d="M340 883l172 -367l-195 -369h-153l166 369l-140 367h150z" />
    <glyph glyph-name="fi" unicode="&#xf001;" horiz-adv-x="948" 
d="M664 1184l8 172h176l-4 -172h-180zM602 0q23 251 34 490.5t11 472.5v57h195q-23 -251 -34 -490.5t-11 -472.5v-57h-195zM584 1020l-6 -129h-232q-10 -193 -18 -412t-15 -479h-174q20 219 29.5 441t9.5 450h-139l6 129h139v72q0 150 69.5 220t215.5 70q42 0 81.5 -4.5
t76.5 -14.5l6 -128q-41 8 -70 11t-55 3q-87 0 -121.5 -40.5t-34.5 -151.5v-37h232z" />
    <glyph glyph-name="fl" unicode="&#xf002;" horiz-adv-x="948" 
d="M584 1020l-6 -129h-232q-10 -193 -18 -412t-15 -479h-174q20 219 29.5 441t9.5 450h-139l6 129h139v72q0 150 69.5 220t215.5 70q42 0 81.5 -4.5t76.5 -14.5l6 -128q-41 8 -70 11t-55 3q-87 0 -121.5 -40.5t-34.5 -151.5v-37h232zM618 0q29 199 48 553t24 802l187 1
q-28 -194 -46.5 -546.5t-24.5 -809.5h-188z" />
    <glyph glyph-name="daggerdbl" unicode="&#x2021;" 
d="M371 -326l86 402l-334 -51l8 186l328 -51l-1 9q-24 269 -42 343q32 123 48.5 203t24.5 149l-325 -49l8 186l322 -51l-31 406h203l-88 -406l335 51l-10 -186l-327 51q4 -75 13.5 -160t26.5 -205q-5 -21 -16 -67q-43 -167 -55 -274l327 51l-10 -186l-319 51l28 -402h-200z
" />
    <glyph glyph-name="periodcentered" unicode="&#xb7;" horiz-adv-x="563" 
d="M180 688q0 47 29 77t76 30q45 0 75.5 -31t30.5 -76q0 -44 -31 -74t-75 -30q-48 0 -76.5 28.5t-28.5 75.5z" />
    <glyph glyph-name="quotesinglbase" unicode="&#x201a;" horiz-adv-x="563" 
d="M205 193h217l-199 -343h-129z" />
    <glyph glyph-name="quotedblbase" unicode="&#x201e;" horiz-adv-x="901" 
d="M573 193h218l-199 -343h-129zM217 193h217l-198 -343h-130z" />
    <glyph glyph-name="perthousand" unicode="&#x2030;" horiz-adv-x="2437" 
d="M2034 657q-100 0 -148.5 -86.5t-48.5 -267.5q0 -96 45 -148.5t127 -52.5q98 0 145.5 76t47.5 234q0 134 -39 189.5t-129 55.5zM1688 336q0 209 90 324.5t254 115.5q154 0 236.5 -92.5t82.5 -265.5q0 -215 -88 -323.5t-262 -108.5q-151 0 -232 90.5t-81 259.5zM1206 1356
l-678 -1356h-125l678 1356h125zM1260 657q-101 0 -150 -87t-49 -267q0 -95 45.5 -148t128.5 -53q98 0 145 76t47 234q0 134 -38.5 189.5t-128.5 55.5zM911 336q0 208 92 324t254 116q154 0 236 -92.5t82 -265.5q0 -215 -88.5 -323.5t-261.5 -108.5q-151 0 -232.5 90.5
t-81.5 259.5zM393 1268q-101 0 -149.5 -87t-48.5 -266q0 -95 45.5 -148.5t128.5 -53.5q97 0 144.5 76t47.5 235q0 134 -38.5 189t-129.5 55zM47 946q0 210 90.5 325t253.5 115q154 0 237 -92.5t83 -265.5q0 -214 -89 -323t-264 -109q-150 0 -230.5 90.5t-80.5 259.5z" />
    <glyph glyph-name="Acircumflex" unicode="&#xc2;" horiz-adv-x="1241" 
d="M666 1241l-232 -491h410zM1284 0h-194q-10 50 -19.5 88t-21.5 72l-154 446h-522l-187 -401q-14 -34 -34 -87.5t-41 -117.5h-193l563 1192q14 30 30.5 72t33.5 92l268 -1q5 -35 14 -69.5t25 -75.5zM393 1466l197 348h176l198 -348h-106l-180 242l-180 -242h-105z" />
    <glyph glyph-name="Ecircumflex" unicode="&#xca;" horiz-adv-x="1110" 
d="M92 0q28 255 45 598t23 758h915l-12 -160q-19 1 -53 3q-161 7 -189 7h-477q-1 -8 -4.5 -26t-3.5 -23t-1.5 -32.5t-2.5 -49.5l-10 -295h426q44 0 95 2t130 6l-7 -157q-36 3 -75.5 4.5t-106.5 1.5h-104h-361l-16 -197q-4 -45 -7.5 -109.5t-6.5 -168.5q72 -7 147.5 -9.5
t169.5 -2.5q123 0 222 4t184 12l-8 -166h-912zM319 1466l197 348h176l198 -348h-106l-180 242l-180 -242h-105z" />
    <glyph glyph-name="Aacute" unicode="&#xc1;" horiz-adv-x="1241" 
d="M666 1241l-232 -491h410zM1284 0h-194q-10 50 -19.5 88t-21.5 72l-154 446h-522l-187 -401q-14 -34 -34 -87.5t-41 -117.5h-193l563 1192q14 30 30.5 72t33.5 92l268 -1q5 -35 14 -69.5t25 -75.5zM541 1466l208 348h181l-283 -348h-106z" />
    <glyph glyph-name="Edieresis" unicode="&#xcb;" horiz-adv-x="1110" 
d="M92 0q28 255 45 598t23 758h915l-12 -160q-19 1 -53 3q-161 7 -189 7h-477q-1 -8 -4.5 -26t-3.5 -23t-1.5 -32.5t-2.5 -49.5l-10 -295h426q44 0 95 2t130 6l-7 -157q-36 3 -75.5 4.5t-106.5 1.5h-104h-361l-16 -197q-4 -45 -7.5 -109.5t-6.5 -168.5q72 -7 147.5 -9.5
t169.5 -2.5q123 0 222 4t184 12l-8 -166h-912zM346 1530v188h159v-188h-159zM702 1530v188h160v-188h-160z" />
    <glyph glyph-name="Egrave" unicode="&#xc8;" horiz-adv-x="1110" 
d="M92 0q28 255 45 598t23 758h915l-12 -160q-19 1 -53 3q-161 7 -189 7h-477q-1 -8 -4.5 -26t-3.5 -23t-1.5 -32.5t-2.5 -49.5l-10 -295h426q44 0 95 2t130 6l-7 -157q-36 3 -75.5 4.5t-106.5 1.5h-104h-361l-16 -197q-4 -45 -7.5 -109.5t-6.5 -168.5q72 -7 147.5 -9.5
t169.5 -2.5q123 0 222 4t184 12l-8 -166h-912zM741 1466h-107l-280 348h178z" />
    <glyph glyph-name="Iacute" unicode="&#xcd;" horiz-adv-x="485" 
d="M379 1356q-12 -109 -17 -169t-8 -112l-32 -635q-7 -115 -10.5 -223.5t-4.5 -216.5h-205q29 253 47 600.5t23 754.5zM156 1466l208 348h181l-283 -348h-106z" />
    <glyph glyph-name="Icircumflex" unicode="&#xce;" horiz-adv-x="485" 
d="M379 1356q-12 -109 -17 -169t-8 -112l-32 -635q-7 -115 -10.5 -223.5t-4.5 -216.5h-205q29 253 47 600.5t23 754.5zM8 1466l197 348h176l198 -348h-106l-180 242l-180 -242h-105z" />
    <glyph glyph-name="Idieresis" unicode="&#xcf;" horiz-adv-x="485" 
d="M379 1356q-12 -109 -17 -169t-8 -112l-32 -635q-7 -115 -10.5 -223.5t-4.5 -216.5h-205q29 253 47 600.5t23 754.5zM35 1530v188h159v-188h-159zM391 1530v188h160v-188h-160z" />
    <glyph glyph-name="Igrave" unicode="&#xcc;" horiz-adv-x="485" 
d="M379 1356q-12 -109 -17 -169t-8 -112l-32 -635q-7 -115 -10.5 -223.5t-4.5 -216.5h-205q29 253 47 600.5t23 754.5zM430 1466h-107l-280 348h178z" />
    <glyph glyph-name="Oacute" unicode="&#xd3;" horiz-adv-x="1640" 
d="M272 645q0 -255 142 -392.5t405 -137.5q265 0 406 152.5t141 439.5q0 259 -141 396.5t-406 137.5q-267 0 -407 -152.5t-140 -443.5zM786 -29q-329 0 -515.5 179t-186.5 495q0 350 199 544.5t559 194.5q337 0 524.5 -180t187.5 -504q0 -345 -201 -537t-567 -192zM734 1466
l208 348h181l-283 -348h-106z" />
    <glyph glyph-name="Ocircumflex" unicode="&#xd4;" horiz-adv-x="1640" 
d="M272 645q0 -255 142 -392.5t405 -137.5q265 0 406 152.5t141 439.5q0 259 -141 396.5t-406 137.5q-267 0 -407 -152.5t-140 -443.5zM786 -29q-329 0 -515.5 179t-186.5 495q0 350 199 544.5t559 194.5q337 0 524.5 -180t187.5 -504q0 -345 -201 -537t-567 -192zM586 1466
l197 348h176l198 -348h-106l-180 242l-180 -242h-105z" />
    <glyph glyph-name="apple" unicode="&#xf000;" horiz-adv-x="1618" 
d="M836 1216q-1 6 -1.5 14t-0.5 23q0 124 95 229.5t236 131.5q1 -10 1.5 -23t0.5 -39q0 -131 -103.5 -234.5t-203.5 -103.5h-8q-3 0 -7.5 1t-8.5 1zM1505 403q-114 -247 -205 -342.5t-204 -95.5q-50 0 -131.5 33t-122.5 33q-45 0 -131 -33t-127 -33q-64 0 -128.5 44
t-129.5 132q-102 140 -157.5 295.5t-55.5 300.5q0 219 125 356.5t323 137.5q68 0 155 -34t124 -34q34 0 121.5 35t152.5 35q110 0 198 -40t161 -124q-102 -65 -151.5 -145.5t-49.5 -182.5q0 -113 60 -200t173 -138z" />
    <glyph glyph-name="Ograve" unicode="&#xd2;" horiz-adv-x="1640" 
d="M272 645q0 -255 142 -392.5t405 -137.5q265 0 406 152.5t141 439.5q0 259 -141 396.5t-406 137.5q-267 0 -407 -152.5t-140 -443.5zM786 -29q-329 0 -515.5 179t-186.5 495q0 350 199 544.5t559 194.5q337 0 524.5 -180t187.5 -504q0 -345 -201 -537t-567 -192z
M1008 1466h-107l-280 348h178z" />
    <glyph glyph-name="Uacute" unicode="&#xda;" horiz-adv-x="1370" 
d="M352 1356q-7 -63 -12.5 -130.5t-9.5 -150.5l-29 -600q-1 -13 -1.5 -27.5t-0.5 -41.5q0 -82 18.5 -129.5t59.5 -79.5q51 -40 122.5 -61t157.5 -21q210 0 304.5 96t101.5 328l12 471q1 21 2 65q4 171 4 281h203q-10 -76 -16.5 -147t-10.5 -136l-22 -470q-1 -30 -3 -87
q-7 -273 -89 -375q-66 -81 -194 -125.5t-300 -44.5q-253 0 -393.5 109.5t-140.5 304.5q0 56 15 378t18 593h204zM598 1466l208 348h181l-283 -348h-106z" />
    <glyph glyph-name="Ucircumflex" unicode="&#xdb;" horiz-adv-x="1370" 
d="M352 1356q-7 -63 -12.5 -130.5t-9.5 -150.5l-29 -600q-1 -13 -1.5 -27.5t-0.5 -41.5q0 -82 18.5 -129.5t59.5 -79.5q51 -40 122.5 -61t157.5 -21q210 0 304.5 96t101.5 328l12 471q1 21 2 65q4 171 4 281h203q-10 -76 -16.5 -147t-10.5 -136l-22 -470q-1 -30 -3 -87
q-7 -273 -89 -375q-66 -81 -194 -125.5t-300 -44.5q-253 0 -393.5 109.5t-140.5 304.5q0 56 15 378t18 593h204zM450 1466l197 348h176l198 -348h-106l-180 242l-180 -242h-105z" />
    <glyph glyph-name="Ugrave" unicode="&#xd9;" horiz-adv-x="1370" 
d="M352 1356q-7 -63 -12.5 -130.5t-9.5 -150.5l-29 -600q-1 -13 -1.5 -27.5t-0.5 -41.5q0 -82 18.5 -129.5t59.5 -79.5q51 -40 122.5 -61t157.5 -21q210 0 304.5 96t101.5 328l12 471q1 21 2 65q4 171 4 281h203q-10 -76 -16.5 -147t-10.5 -136l-22 -470q-1 -30 -3 -87
q-7 -273 -89 -375q-66 -81 -194 -125.5t-300 -44.5q-253 0 -393.5 109.5t-140.5 304.5q0 56 15 378t18 593h204zM872 1466h-107l-280 348h178z" />
    <glyph glyph-name="dotlessi" unicode="&#x131;" horiz-adv-x="451" 
d="M102 0q23 251 34 490.5t11 472.5v57h195q-23 -251 -34 -490.5t-11 -472.5v-57h-195z" />
    <glyph glyph-name="circumflex" unicode="&#x2c6;" 
d="M260 1159l197 348h176l198 -348h-106l-180 242l-180 -242h-105z" />
    <glyph glyph-name="tilde" unicode="&#x2dc;" 
d="M836 1425q-25 -92 -75.5 -141t-121.5 -49q-17 0 -33.5 2.5t-33.5 7.5l-80 27q-12 4 -26 6t-28 2q-36 0 -58.5 -16t-37.5 -52h-88q21 93 72 142t127 49q17 0 32 -2t27 -6l78 -29q13 -4 29 -6t32 -2q36 0 60 17t37 50h88z" />
    <glyph glyph-name="macron" unicode="&#xaf;" 
d="M287 1253v125h516v-125h-516z" />
    <glyph glyph-name="breve" unicode="&#x2d8;" 
d="M262 1468h90q6 -76 51.5 -110.5t141.5 -34.5t141 34.5t51 110.5h90q-10 -141 -78 -206.5t-204 -65.5t-205 66.5t-78 205.5z" />
    <glyph glyph-name="dotaccent" unicode="&#x2d9;" 
d="M455 1217v198h170v-198h-170z" />
    <glyph glyph-name="ring" unicode="&#x2da;" 
d="M397 1386q0 -60 41 -101.5t101 -41.5t101.5 42t41.5 101q0 60 -41.5 102t-101.5 42t-101 -41.5t-41 -102.5zM291 1389q0 103 71.5 174t176.5 71q104 0 175.5 -71t71.5 -174q0 -105 -71.5 -177.5t-175.5 -72.5t-176 72.5t-72 177.5z" />
    <glyph glyph-name="cedilla" unicode="&#xb8;" 
d="M270 -424v88q82 -18 143.5 -27.5t102.5 -9.5q60 0 90.5 21.5t30.5 62.5q0 52 -31.5 75.5t-101.5 23.5q-17 0 -31 -1t-27 -1v192h72v-106h23q111 0 169 -45t58 -132q0 -89 -63 -135.5t-185 -46.5q-47 0 -108 10t-142 31z" />
    <glyph glyph-name="hungarumlaut" unicode="&#x2dd;" 
d="M606 1159l168 348h158l-242 -348h-84zM348 1159l150 348h155l-219 -348h-86z" />
    <glyph glyph-name="ogonek" unicode="&#x2db;" 
d="M586 0q-72 -65 -104.5 -118.5t-32.5 -104.5q0 -44 22.5 -63t75.5 -19h80v-129h-78q-114 0 -168.5 40t-54.5 124q0 64 39 122.5t149 147.5h72z" />
    <glyph glyph-name="caron" unicode="&#x2c7;" 
d="M260 1507h105l180 -243l180 243h106l-198 -348h-176z" />
    <glyph glyph-name="Lslash" unicode="&#x141;" horiz-adv-x="920" 
d="M100 0q18 168 28 304.5t13 248.5q-35 -22 -66.5 -43t-64.5 -45l3 158l2 1q75 43 137 87q6 72 10.5 233.5t7.5 410.5l198 1q-9 -73 -16 -157t-12 -193l-8 -191q162 103 328 216l1 1l-10 -164q-60 -36 -146 -90.5t-183 -118.5l-5 -172q-1 -29 -1.5 -63t-0.5 -102l1 -162
q66 -6 118.5 -8t102.5 -2q94 0 190 4t193 12l-7 -166h-813z" />
    <glyph glyph-name="lslash" unicode="&#x142;" horiz-adv-x="461" 
d="M109 0q15 119 26.5 262.5t20.5 323.5q-43 -27 -79.5 -52t-66.5 -47l2 117q40 22 75 44.5t71 47.5q10 150 15 314t5 346h187q-16 -116 -27.5 -255.5t-20.5 -314.5q54 34 99.5 64.5t75.5 52.5l-7 -117q-7 -4 -64 -40t-108 -68q-11 -299 -14.5 -421t-3.5 -206v-51h-186z" />
    <glyph glyph-name="Scaron" unicode="&#x160;" horiz-adv-x="915" 
d="M53 53l-10 178q135 -71 218 -96.5t163 -25.5q112 0 177 47.5t65 130.5q0 51 -32.5 102t-103.5 113l-239 207q-125 108 -165 178t-40 155q0 157 109.5 247.5t300.5 90.5q81 0 160 -14.5t147 -42.5l16 -160q-108 39 -186 56.5t-141 17.5q-104 0 -167 -50t-63 -128
q0 -47 27.5 -91t93.5 -102l266 -231q106 -91 150.5 -166t44.5 -160q0 -157 -110.5 -248.5t-301.5 -91.5q-92 0 -188 21.5t-191 62.5zM223 1814h105l180 -243l180 243h106l-198 -348h-176z" />
    <glyph glyph-name="scaron" unicode="&#x161;" horiz-adv-x="809" 
d="M37 193q100 -47 180 -69t150 -22q102 0 159.5 36.5t57.5 101.5t-98 143h-1l-223 176q-84 67 -120 125t-36 123q0 107 88 174.5t230 67.5q56 0 121.5 -10t144.5 -29l10 -150q-79 28 -148.5 43t-119.5 15q-72 0 -116 -32.5t-44 -84.5q0 -31 22.5 -61.5t80.5 -73.5l207 -156
q109 -85 138.5 -137t29.5 -123q0 -133 -100.5 -206t-284.5 -73q-76 0 -155.5 14t-164.5 42zM154 1507h105l180 -243l180 243h106l-198 -348h-176z" />
    <glyph glyph-name="Zcaron" unicode="&#x17d;" horiz-adv-x="1071" 
d="M33 0v166l815 1044h-555q-30 0 -76 -2t-100 -6l6 154h934v-164l-817 -1047h528q27 0 91 3t142 8l-6 -156h-962zM301 1814h105l180 -243l180 243h106l-198 -348h-176z" />
    <glyph glyph-name="zcaron" unicode="&#x17e;" horiz-adv-x="874" 
d="M831 0h-815l7 160l653 731h-424q-44 0 -87 -1.5t-83 -4.5l6 135h778v-146l-661 -735h389q31 0 90.5 3t149.5 10zM186 1507h105l180 -243l180 243h106l-198 -348h-176z" />
    <glyph glyph-name="brokenbar" unicode="&#xa6;" 
d="M575 408v-758h-126v758h126zM575 1432v-758h-126v758h126z" />
    <glyph glyph-name="Eth" unicode="&#xd0;" horiz-adv-x="1460" 
d="M307 141h262q160 0 239.5 16.5t143.5 55.5q119 73 178.5 201.5t59.5 314.5q0 234 -97.5 359.5t-279.5 125.5h-108h-351l-20 -448h182q137 0 179 0.5t59 1.5l-5 -131q-17 1 -59.5 1.5t-179.5 0.5h-182l-6 -149q-6 -113 -14 -322zM102 0q16 127 28 276t24 363h-74
q-16 0 -34.5 -0.5t-39.5 -1.5l4 131q18 -1 40 -1.5t65 -0.5h43q8 104 12 422q1 108 2 168h561q206 0 291.5 -24t153.5 -81q99 -84 148.5 -214t49.5 -308q0 -183 -55 -327.5t-162 -241.5q-92 -86 -214 -123t-329 -37h-514z" />
    <glyph glyph-name="eth" unicode="&#xf0;" horiz-adv-x="1165" 
d="M829 954q-15 35 -39.5 81.5t-66.5 121.5q-53 -11 -123.5 -30t-189.5 -54l-29 101q90 15 164.5 30.5t125.5 28.5q-11 19 -26.5 42t-48.5 68l133 39q23 -24 71 -80q14 -18 21 -26q48 13 93.5 27t89.5 28l24 -98q-20 -4 -72 -16t-83 -19q110 -177 162 -349t52 -355
q0 -234 -140 -378.5t-365 -144.5q-249 0 -377.5 128t-128.5 374q0 254 133 395.5t371 141.5q71 0 131 -13.5t118 -42.5zM594 883q-172 0 -262 -108t-90 -312q0 -179 82 -269t245 -90q173 0 263 106.5t90 309.5q0 182 -82 272.5t-246 90.5z" />
    <glyph glyph-name="Yacute" unicode="&#xdd;" horiz-adv-x="975" 
d="M394 0v14q16 196 16 215l14 381l-438 746h221q24 -58 38.5 -88t28.5 -54l252 -438l234 408q17 29 38.5 72t47.5 100h198l-442 -756l-18 -426v-31q0 -45 4 -137v-6h-194zM400 1466l208 348h181l-283 -348h-106z" />
    <glyph glyph-name="yacute" unicode="&#xfd;" horiz-adv-x="952" 
d="M438 -203q-68 -146 -147.5 -203t-210.5 -57q-43 0 -88.5 5t-95.5 16l-11 143q45 -15 86.5 -23t79.5 -8q80 0 138.5 41t95.5 123l80 180l-269 709q-12 35 -43.5 116.5t-70.5 180.5h202l234 -682q13 -39 23.5 -78t17.5 -77q14 38 30.5 79.5t36.5 85.5l189 426
q19 44 43.5 107t52.5 139h190zM373 1159l208 348h181l-283 -348h-106z" />
    <glyph glyph-name="Thorn" unicode="&#xde;" horiz-adv-x="1034" 
d="M162 1356h196q-9 -69 -15.5 -142t-10.5 -172h286q109 0 159 -9t87 -32q65 -37 101 -109t36 -165q0 -192 -132 -303t-363 -111q-30 0 -61 1.5t-62 5.5l-45 133q26 -5 51 -7t49 -2q189 0 286 64.5t97 189.5q0 114 -58 160.5t-222 46.5q-49 0 -103 -3t-112 -9
q-5 -57 -9 -110.5t-6 -98.5l-8 -242q-1 -27 -3 -86q-8 -225 -10 -356h-198q29 247 46.5 592.5t23.5 763.5z" />
    <glyph glyph-name="thorn" unicode="&#xfe;" horiz-adv-x="1157" 
d="M309 874q-11 -62 -17.5 -159t-6.5 -209q0 -203 73.5 -300t227.5 -97q157 0 241 112t84 322q0 188 -88.5 282.5t-265.5 94.5q-63 0 -125.5 -11.5t-122.5 -34.5zM266 156l-12 -299q-3 -55 -4.5 -127.5t-1.5 -161.5h-191q35 221 57 673t32 1115h185q-11 -89 -19 -172
t-13 -162q79 14 142 20.5t118 6.5q259 0 389.5 -128.5t130.5 -381.5q0 -257 -131.5 -413.5t-347.5 -156.5q-109 0 -189 45t-145 142z" />
    <glyph glyph-name="minus" unicode="&#x2212;" horiz-adv-x="1706" 
d="M1452 670v-119h-1198v119h1198z" />
    <glyph glyph-name="multiply" unicode="&#xd7;" horiz-adv-x="1706" 
d="M858 692l475 477l82 -82l-475 -477l475 -475l-82 -82l-475 475l-477 -475l-80 82l475 475l-475 477l80 82z" />
    <glyph glyph-name="onesuperior" unicode="&#xb9;" horiz-adv-x="745" 
d="M426 541h-127q4 37 8.5 89.5t5.5 61.5l25 408q0 17 1 52t1 52v41q-32 -14 -56 -26t-46 -25v98q30 13 60.5 27.5t68.5 34.5h106q-10 -56 -16 -163q-2 -25 -2 -36l-21 -360q-4 -60 -6 -123.5t-2 -130.5z" />
    <glyph glyph-name="twosuperior" unicode="&#xb2;" horiz-adv-x="745" 
d="M37 541l6 84l215 176q150 124 224.5 217t74.5 158q0 56 -48.5 85t-141.5 29q-63 0 -132 -10t-149 -31l16 97q79 13 144.5 19.5t124.5 6.5q151 0 225 -46t74 -140q0 -81 -71 -183t-204 -210l-205 -166h252q43 0 94.5 2.5t120.5 7.5l-10 -96h-610z" />
    <glyph glyph-name="threesuperior" unicode="&#xb3;" horiz-adv-x="745" 
d="M45 557l-10 98q92 -26 148.5 -35.5t109.5 -9.5q124 0 189 42.5t65 123.5q0 73 -57 110.5t-168 37.5q-16 0 -55 -3t-60 -3v89q15 0 31 -0.5t43 -0.5q118 0 181.5 41t63.5 116q0 66 -47 95.5t-151 29.5q-57 0 -115.5 -9.5t-114.5 -27.5l23 98q66 12 122 17.5t103 5.5
q148 0 223.5 -49.5t75.5 -146.5q0 -80 -47 -132t-139 -75q101 -16 152 -65t51 -132q0 -116 -98.5 -182t-272.5 -66q-64 0 -125 8t-121 25z" />
    <glyph glyph-name="onequarter" unicode="&#xbc;" horiz-adv-x="1763" 
d="M1198 350h275l14 344zM1442 0q6 37 10 72.5t6 68.5l6 125h-372l8 101l262 313q9 10 37 47q16 22 25 33h161q-12 -106 -15 -149t-3 -72l-6 -189h49q31 0 53.5 1.5t44.5 4.5v-94q-20 2 -37.5 3t-38.5 1h-78l-8 -129v-74v-63h-104zM498 0h-129l897 1384h127zM406 596h-121
q5 36 8.5 71t5.5 71l23 381q1 16 1.5 35.5t0.5 59.5l-1 39q-6 -3 -21 -10q-46 -22 -75 -39l1 93l5 2q82 37 115 57h103q-8 -52 -14 -147q-2 -27 -3 -40l-20 -335q-3 -35 -5 -87.5t-3 -150.5z" />
    <glyph glyph-name="onehalf" unicode="&#xbd;" horiz-adv-x="1763" 
d="M1090 0l4 78l204 166q144 114 215.5 200.5t71.5 147.5q0 53 -46.5 80.5t-135.5 27.5q-57 0 -123 -9.5t-145 -28.5l16 90q82 13 142.5 18.5t113.5 5.5q144 0 214.5 -43t70.5 -131q0 -77 -68 -171.5t-194 -194.5l-195 -156h242q39 0 88 2.5t114 7.5l-8 -90h-581zM498 0
h-129l897 1384h127zM406 596h-121q5 36 8.5 71t5.5 71l23 381q1 16 1.5 35.5t0.5 59.5l-1 39q-6 -3 -21 -10q-46 -22 -75 -39l1 93l5 2q82 37 115 57h103q-8 -52 -14 -147q-2 -27 -3 -40l-20 -335q-3 -35 -5 -87.5t-3 -150.5z" />
    <glyph glyph-name="threequarters" unicode="&#xbe;" horiz-adv-x="1763" 
d="M1198 350h275l14 344zM1442 0q6 37 10 72.5t6 68.5l6 125h-372l8 101l262 313q9 10 37 47q16 22 25 33h161q-12 -106 -15 -149t-3 -72l-6 -189h49q31 0 53.5 1.5t44.5 4.5v-94q-20 2 -37.5 3t-38.5 1h-78l-8 -129v-74v-63h-104zM498 0h-129l897 1384h127zM43 610l-10 95
q87 -27 141 -36.5t105 -9.5q119 0 181 40.5t62 117.5q0 66 -54.5 100.5t-160.5 34.5q-20 0 -48 -1.5t-62 -4.5v86q15 -1 30.5 -1.5t40.5 -0.5q112 0 173 38t61 108q0 62 -44.5 90t-144.5 28q-53 0 -109 -8.5t-112 -25.5l23 90q66 11 118 16.5t97 5.5q142 0 214 -46.5
t72 -137.5q0 -74 -44.5 -122.5t-133.5 -70.5q97 -13 145 -59t48 -125q0 -108 -94 -169.5t-261 -61.5q-59 0 -116.5 7.5t-116.5 22.5z" />
    <glyph glyph-name="franc" unicode="&#x20a3;" horiz-adv-x="1688" 
d="M94 0q27 179 44.5 522t25.5 833l854 1l-10 -162q-79 8 -155.5 12t-154.5 4h-350q-5 -39 -8.5 -80t-5.5 -83l-10 -267h348q27 0 99.5 3t160.5 7l-9 -165q-62 3 -122.5 4.5t-120.5 1.5h-358l-11 -191q-3 -74 -4.5 -154t-1.5 -167v-119h-211zM1124 0q20 235 29.5 472
t9.5 476v72h174l-6 -141q46 88 107.5 126.5t154.5 38.5q35 0 52.5 -2.5t31.5 -7.5l10 -145q-33 4 -58 6t-34 2q-288 0 -296 -867q-1 -20 -1 -30h-174z" />
    <glyph glyph-name="Gbreve" unicode="&#x11e;" horiz-adv-x="1448" 
d="M1151 172q10 67 15.5 168.5t7.5 286.5h-302l9 147h477q-13 -155 -20 -301.5t-7 -275.5q0 -26 1 -57t3 -91q-142 -40 -277 -60t-261 -20q-344 0 -530.5 172.5t-186.5 489.5q0 357 200.5 557.5t559.5 200.5q106 0 216.5 -15.5t227.5 -46.5l14 -158q-188 47 -282 61.5
t-174 14.5q-272 0 -426 -161t-154 -447q0 -248 146 -387t405 -139q104 0 190 15.5t148 45.5zM491 1775h90q6 -76 51.5 -110.5t141.5 -34.5t141 34.5t51 110.5h90q-10 -141 -78 -206.5t-204 -65.5t-205 66.5t-78 205.5z" />
    <glyph glyph-name="gbreve" unicode="&#x11f;" horiz-adv-x="1157" 
d="M877 879q-43 15 -97 22.5t-116 7.5q-203 0 -312.5 -126.5t-109.5 -360.5q0 -145 78 -231.5t208 -86.5q158 0 244 106.5t92 307.5zM143 -231q120 -48 225 -72.5t193 -24.5q142 0 209.5 69.5t69.5 218.5l4 151q-57 -61 -146 -96t-182 -35q-213 0 -327.5 117.5t-114.5 336.5
q0 292 162.5 451t461.5 159q96 0 190.5 -13t176.5 -38q-37 -317 -45 -670.5t-8 -359.5q-18 -228 -130 -327t-352 -99q-93 0 -187.5 17t-184.5 51zM330 1468h90q6 -76 51.5 -110.5t141.5 -34.5t141 34.5t51 110.5h90q-10 -141 -78 -206.5t-204 -65.5t-205 66.5t-78 205.5z
" />
    <glyph glyph-name="Idotaccent" unicode="&#x130;" horiz-adv-x="485" 
d="M379 1356q-12 -109 -17 -169t-8 -112l-32 -635q-7 -115 -10.5 -223.5t-4.5 -216.5h-205q29 253 47 600.5t23 754.5zM203 1524v198h170v-198h-170z" />
    <glyph glyph-name="Scedilla" unicode="&#x15e;" horiz-adv-x="915" 
d="M53 53l-10 178q135 -71 218 -96.5t163 -25.5q112 0 177 47.5t65 130.5q0 51 -32.5 102t-103.5 113l-239 207q-125 108 -165 178t-40 155q0 157 109.5 247.5t300.5 90.5q81 0 160 -14.5t147 -42.5l16 -160q-108 39 -186 56.5t-141 17.5q-104 0 -167 -50t-63 -128
q0 -47 27.5 -91t93.5 -102l266 -231q106 -91 150.5 -166t44.5 -160q0 -157 -110.5 -248.5t-301.5 -91.5q-92 0 -188 21.5t-191 62.5zM200 -424v88q82 -18 143.5 -27.5t102.5 -9.5q60 0 90.5 21.5t30.5 62.5q0 52 -31.5 75.5t-101.5 23.5q-17 0 -31 -1t-27 -1v192h72v-106h23
q111 0 169 -45t58 -132q0 -89 -63 -135.5t-185 -46.5q-47 0 -108 10t-142 31z" />
    <glyph glyph-name="scedilla" unicode="&#x15f;" horiz-adv-x="809" 
d="M37 193q100 -47 180 -69t150 -22q102 0 159.5 36.5t57.5 101.5t-98 143h-1l-223 176q-84 67 -120 125t-36 123q0 107 88 174.5t230 67.5q56 0 121.5 -10t144.5 -29l10 -150q-79 28 -148.5 43t-119.5 15q-72 0 -116 -32.5t-44 -84.5q0 -31 22.5 -61.5t80.5 -73.5l207 -156
q109 -85 138.5 -137t29.5 -123q0 -133 -100.5 -206t-284.5 -73q-76 0 -155.5 14t-164.5 42zM164 -424v88q82 -18 143.5 -27.5t102.5 -9.5q60 0 90.5 21.5t30.5 62.5q0 52 -31.5 75.5t-101.5 23.5q-17 0 -31 -1t-27 -1v192h72v-106h23q111 0 169 -45t58 -132
q0 -89 -63 -135.5t-185 -46.5q-47 0 -108 10t-142 31z" />
    <glyph glyph-name="Cacute" unicode="&#x106;" horiz-adv-x="1251" 
d="M1192 1165q-94 37 -193.5 55.5t-203.5 18.5q-247 0 -384 -153.5t-137 -430.5q0 -266 135 -404t396 -138q82 0 168.5 14t191.5 45l-26 -172l-14 -2q-205 -29 -326 -29q-350 0 -531.5 173.5t-181.5 506.5q0 349 195 542t546 193q89 0 179 -10.5t180 -32.5zM689 1466
l208 348h181l-283 -348h-106z" />
    <glyph glyph-name="cacute" unicode="&#x107;" horiz-adv-x="901" 
d="M831 16q-77 -22 -144.5 -33.5t-125.5 -11.5q-231 0 -359 135t-128 379q0 263 141 413.5t385 150.5q55 0 119.5 -10t150.5 -31v-154l-3 1q-184 56 -273 56q-173 0 -263.5 -110t-90.5 -320q0 -185 81.5 -278.5t243.5 -93.5q54 0 123 14.5t178 50.5zM455 1159l208 348h181
l-283 -348h-106z" />
    <glyph glyph-name="Ccaron" unicode="&#x10c;" horiz-adv-x="1251" 
d="M1192 1165q-94 37 -193.5 55.5t-203.5 18.5q-247 0 -384 -153.5t-137 -430.5q0 -266 135 -404t396 -138q82 0 168.5 14t191.5 45l-26 -172l-14 -2q-205 -29 -326 -29q-350 0 -531.5 173.5t-181.5 506.5q0 349 195 542t546 193q89 0 179 -10.5t180 -32.5zM541 1814h105
l180 -243l180 243h106l-198 -348h-176z" />
    <glyph glyph-name="ccaron" unicode="&#x10d;" horiz-adv-x="901" 
d="M831 16q-77 -22 -144.5 -33.5t-125.5 -11.5q-231 0 -359 135t-128 379q0 263 141 413.5t385 150.5q55 0 119.5 -10t150.5 -31v-154l-3 1q-184 56 -273 56q-173 0 -263.5 -110t-90.5 -320q0 -185 81.5 -278.5t243.5 -93.5q54 0 123 14.5t178 50.5zM307 1507h105l180 -243
l180 243h106l-198 -348h-176z" />
    <glyph glyph-name="dcroat" unicode="&#x111;" horiz-adv-x="1165" 
d="M885 883q-47 16 -102.5 24t-116.5 8q-205 0 -315.5 -121t-110.5 -345q0 -164 75.5 -256.5t208.5 -92.5q165 0 253 106t95 312zM846 0l6 147q-73 -87 -157 -129.5t-183 -42.5q-213 0 -327.5 120t-114.5 341q0 283 161 447t441 164q54 0 110 -8.5t113 -24.5l6 143h-100
q-51 0 -107 -1t-145 -3l6 96q20 -1 56.5 -1.5t148.5 -0.5h143q0 12 2 26v3q0 4 -1.5 31t-2.5 49h168q-2 -26 -4.5 -61.5t-3.5 -47.5h59q47 0 63.5 0.5t26.5 1.5l-4 -94q-14 1 -33 1.5t-65 0.5h-55q-22 -362 -33.5 -667t-11.5 -490h-162z" />
    <glyph glyph-name="sfthyphen" unicode="&#xad;" horiz-adv-x="674" 
d="M88 438v166h498v-166h-498z" />
    <glyph glyph-name="periodcentered" unicode="&#x2219;" horiz-adv-x="563" 
d="M180 688q0 47 29 77t76 30q45 0 75.5 -31t30.5 -76q0 -44 -31 -74t-75 -30q-48 0 -76.5 28.5t-28.5 75.5z" />
    <glyph glyph-name="euro" horiz-adv-x="1128" 
d="M1073 1163q-87 41 -153.5 59.5t-124.5 18.5q-150 0 -254.5 -99t-139.5 -280q197 0 319.5 0.5t221.5 1.5l-23 -86q-217 2 -340 3t-196 1q-3 -24 -5.5 -54t-4.5 -85q178 0 295.5 0.5t215.5 1.5l-20 -86q-210 2 -318 3t-171 1q6 -201 103.5 -325.5t248.5 -124.5
q63 0 141.5 15t167.5 44l-22 -170q-75 -15 -157.5 -24t-139.5 -9q-232 0 -366.5 157t-145.5 437q-50 0 -96.5 -1t-73.5 -2l15 85q14 -1 44 -1.5t110 -0.5q3 55 5.5 85t5.5 54q-52 0 -100.5 -1t-73.5 -3l13 86q11 -1 48.5 -1.5t124.5 -0.5q47 244 199 383t365 139
q67 0 132.5 -14t139.5 -45z" />
    <glyph glyph-name="euro" unicode="&#x20ac;" horiz-adv-x="1128" 
d="M1073 1163q-87 41 -153.5 59.5t-124.5 18.5q-150 0 -254.5 -99t-139.5 -280q197 0 319.5 0.5t221.5 1.5l-23 -86q-217 2 -340 3t-196 1q-3 -24 -5.5 -54t-4.5 -85q178 0 295.5 0.5t215.5 1.5l-20 -86q-210 2 -318 3t-171 1q6 -201 103.5 -325.5t248.5 -124.5
q63 0 141.5 15t167.5 44l-22 -170q-75 -15 -157.5 -24t-139.5 -9q-232 0 -366.5 157t-145.5 437q-50 0 -96.5 -1t-73.5 -2l15 85q14 -1 44 -1.5t110 -0.5q3 55 5.5 85t5.5 54q-52 0 -100.5 -1t-73.5 -3l13 86q11 -1 48.5 -1.5t124.5 -0.5q47 244 199 383t365 139
q67 0 132.5 -14t139.5 -45z" />
    </font>
</defs>
</svg>
